<svg width="48" height="32" viewBox="0 0 48 32" fill="none" xmlns="http://www.w3.org/2000/svg">
<mask id="mask0_38_7516" style="mask-type:alpha" maskUnits="userSpaceOnUse" x="0" y="0" width="48" height="32">
<rect width="48" height="32" fill="#016FD0"/>
</mask>
<g mask="url(#mask0_38_7516)">
<rect x="0.5" y="0.5" width="47" height="31" rx="3.5" fill="white" stroke="#E8ECEF"/>
<path d="M9.9082 24.6428V17.4395H17.5361L18.3545 18.5062L19.1999 17.4395H46.8872V24.146C46.8872 24.146 46.1631 24.6356 45.3257 24.6428H29.9947L29.072 23.5073V24.6428H26.0484V22.7044C26.0484 22.7044 25.6353 22.975 24.7424 22.975H23.7132V24.6428H19.1352L18.318 23.5532L17.4882 24.6428H9.9082Z" fill="#016FD0"/>
<path d="M1 12.0097L2.72012 8H5.69488L6.67106 10.2461V8H10.369L10.9501 9.6234L11.5135 8H28.1132V8.81614C28.1132 8.81614 28.9858 8 30.42 8L35.806 8.01882L36.7653 10.2355V8H39.8599L40.7116 9.27331V8H43.8346V15.2033H40.7116L39.8954 13.9259V15.2033H35.3487L34.8915 14.0678H33.6692L33.2194 15.2033H30.1361C28.902 15.2033 28.1132 14.4039 28.1132 14.4039V15.2033H23.4642L22.5415 14.0678V15.2033H5.25418L4.79727 14.0678H3.57887L3.12519 15.2033H1V12.0097Z" fill="#016FD0"/>
<path d="M3.32787 8.88867L1.00781 14.2829H2.51829L2.94637 13.2027H5.435L5.86086 14.2829H7.40461L5.08677 8.88867H3.32787ZM4.18625 10.1441L4.94482 12.0316H3.42547L4.18625 10.1441Z" fill="white"/>
<path d="M7.56445 14.281V8.88672L9.71093 8.89469L10.9594 12.3726L12.178 8.88672H14.3073V14.281H12.9587V10.3063L11.5292 14.281H10.3465L8.91302 10.3063V14.281H7.56445Z" fill="white"/>
<path d="M15.2305 14.281V8.88672H19.6311V10.0933H16.5932V11.016H19.5601V12.1517H16.5932V13.1099H19.6311V14.281H15.2305Z" fill="white"/>
<path d="M20.4121 8.88867V14.283H21.7607V12.3666H22.3285L23.9455 14.283H25.5935L23.819 12.2956C24.5473 12.2341 25.2985 11.6091 25.2985 10.6387C25.2985 9.50357 24.4075 8.88867 23.4131 8.88867H20.4121ZM21.7607 10.0953H23.3022C23.672 10.0953 23.941 10.3846 23.941 10.6631C23.941 11.0215 23.5925 11.2309 23.3222 11.2309H21.7607V10.0953Z" fill="white"/>
<path d="M27.2266 14.281H25.8496V8.88672H27.2266V14.281Z" fill="white"/>
<path d="M30.4912 14.281H30.194C28.7559 14.281 27.8828 13.148 27.8828 11.606C27.8828 10.026 28.7462 8.88672 30.5622 8.88672H32.0528V10.1643H30.5077C29.7705 10.1643 29.2491 10.7396 29.2491 11.6194C29.2491 12.664 29.8453 13.1028 30.7042 13.1028H31.0591L30.4912 14.281Z" fill="white"/>
<path d="M33.4275 8.88867L31.1074 14.2829H32.6179L33.046 13.2027H35.5346L35.9605 14.2829H37.5042L35.1864 8.88867H33.4275ZM34.2859 10.1441L35.0444 12.0316H33.5251L34.2859 10.1441Z" fill="white"/>
<path d="M37.6602 14.281V8.88672H39.3747L41.5639 12.2759V8.88672H42.9125V14.281H41.2534L39.0087 10.8031V14.281H37.6602Z" fill="white"/>
<path d="M10.8301 23.7205V18.3262H15.2307V19.5328H12.1928V20.4555H15.1597V21.5911H12.1928V22.5493H15.2307V23.7205H10.8301Z" fill="white"/>
<path d="M32.3926 23.7205V18.3262H36.7932V19.5328H33.7553V20.4555H36.708V21.5911H33.7553V22.5493H36.7932V23.7205H32.3926Z" fill="white"/>
<path d="M15.4026 23.7204L17.5452 21.0566L15.3516 18.3262H17.0506L18.357 20.0141L19.6678 18.3262H21.3003L19.1355 21.0233L21.2821 23.7204H19.5833L18.3149 22.0591L17.0772 23.7204H15.4026Z" fill="white"/>
<path d="M21.4414 18.3262V23.7205H22.8255V22.017H24.245C25.4462 22.017 26.3566 21.3798 26.3566 20.1405C26.3566 19.114 25.6425 18.3262 24.4202 18.3262H21.4414ZM22.8255 19.5461H24.3204C24.7085 19.5461 24.9859 19.7839 24.9859 20.1672C24.9859 20.5272 24.7099 20.7882 24.316 20.7882H22.8255V19.5461Z" fill="white"/>
<path d="M26.9414 18.3262V23.7205H28.29V21.8041H28.8578L30.4748 23.7205H32.1228L30.3483 21.7331C31.0766 21.6716 31.8278 21.0466 31.8278 20.0762C31.8278 18.9411 30.9368 18.3262 29.9424 18.3262H26.9414ZM28.29 19.5328H29.8315C30.2013 19.5328 30.4703 19.8221 30.4703 20.1006C30.4703 20.459 30.1218 20.6684 29.8515 20.6684H28.29V19.5328Z" fill="white"/>
<path d="M37.4193 23.7205V22.5493H40.1182C40.5176 22.5493 40.6905 22.3335 40.6905 22.0969C40.6905 21.8701 40.5181 21.6408 40.1182 21.6408H38.8986C37.8385 21.6408 37.248 20.9949 37.248 20.0252C37.248 19.1603 37.7887 18.3262 39.3641 18.3262H41.9902L41.4224 19.5399H39.1511C38.717 19.5399 38.5833 19.7677 38.5833 19.9853C38.5833 20.2089 38.7485 20.4555 39.0802 20.4555H40.3578C41.5395 20.4555 42.0523 21.1259 42.0523 22.0037C42.0523 22.9475 41.4809 23.7205 40.2934 23.7205H37.4193Z" fill="white"/>
<path d="M42.3665 23.7205V22.5493H45.0655C45.4648 22.5493 45.6377 22.3335 45.6377 22.0969C45.6377 21.8701 45.4654 21.6408 45.0655 21.6408H43.8459C42.7857 21.6408 42.1953 20.9949 42.1953 20.0252C42.1953 19.1603 42.736 18.3262 44.3113 18.3262H46.8839L46.3697 19.5399H44.0984C43.6642 19.5399 43.5306 19.7677 43.5306 19.9853C43.5306 20.2089 43.6957 20.4555 44.0274 20.4555H45.305C46.4868 20.4555 46.9996 21.1259 46.9996 22.0037C46.9996 22.9475 46.4282 23.7205 45.2407 23.7205H42.3665Z" fill="white"/>
</g>
</svg>
