<svg width="22" height="25" viewBox="0 0 22 25" fill="none" xmlns="http://www.w3.org/2000/svg">
<g clip-path="url(#clip0_44_543)">
<path d="M17.1836 6.25H21.8689V21.0938C21.8689 22.168 21.4866 23.0876 20.722 23.8525C19.9573 24.6175 19.0382 25 17.9644 25H3.90837C2.83464 25 1.91547 24.6175 1.15084 23.8525C0.386218 23.0876 0.00390625 22.168 0.00390625 21.0938V6.25H4.68926C4.68926 4.52474 5.29934 3.05176 6.51948 1.83105C7.73963 0.610352 9.21194 0 10.9364 0C12.6609 0 14.1332 0.610352 15.3533 1.83105C16.5735 3.05176 17.1836 4.52474 17.1836 6.25ZM13.6939 3.49121C13.6939 3.49121 13.5028 3.29997 13.1205 2.91748C12.7382 2.53499 12.0101 2.34375 10.9364 2.34375C9.86268 2.34375 8.9435 2.72624 8.17888 3.49121C7.41426 4.25619 7.03194 5.17578 7.03194 6.25H14.8409C14.8409 5.17578 14.4586 4.25619 13.6939 3.49121ZM19.5262 21.0938V8.59375H17.1836V10.5469C17.1836 10.8724 17.0697 11.1491 16.8419 11.377C16.6142 11.6048 16.3376 11.7188 16.0122 11.7188C15.6868 11.7188 15.4103 11.6048 15.1825 11.377C14.9548 11.1491 14.8409 10.8724 14.8409 10.5469V8.59375H7.03194V10.5469C7.03194 10.8724 6.91806 11.1491 6.6903 11.377C6.46254 11.6048 6.18598 11.7188 5.8606 11.7188C5.53523 11.7188 5.25867 11.6048 5.0309 11.377C4.80314 11.1491 4.68926 10.8724 4.68926 10.5469V8.59375H2.34659V21.0938C2.34659 21.5169 2.50114 21.8831 2.81024 22.1924C3.11934 22.5016 3.48539 22.6562 3.90837 22.6562H17.9644C18.3874 22.6562 18.7535 22.5016 19.0626 22.1924C19.3717 21.8831 19.5262 21.5169 19.5262 21.0938Z" fill="#323232"/>
</g>
<defs>
<clipPath id="clip0_44_543">
<rect width="21.87" height="25" fill="white" transform="matrix(1 0 0 -1 0 25)"/>
</clipPath>
</defs>
</svg>
