<?xml version="1.0" encoding="utf-8"?>
<!-- Generator: Adobe Illustrator 28.3.0, SVG Export Plug-In . SVG Version: 6.00 Build 0)  -->
<svg version="1.1" id="Layer_1" xmlns="http://www.w3.org/2000/svg" xmlns:xlink="http://www.w3.org/1999/xlink" x="0px" y="0px"
	 viewBox="0 0 176.81 244.65" style="enable-background:new 0 0 176.81 244.65;" xml:space="preserve">
<style type="text/css">
	.st0{fill:#15294C;}
	.st1{fill:#0C4692;}
</style>
<g>
	<path class="st0" d="M1.1,98.76v96.2c0,2.18,1.77,3.95,3.95,3.95h106.83c4.97,0,9.92-0.71,14.68-2.13
		c15.4-4.6,45.54-18.14,49.75-54.22c0.49-4.2-3.24-7.64-7.39-6.85c-11.43,2.15-31.6,1.45-34.87-28.9
		c-1.09-10.09-9.34-18.04-19.49-18.17c-0.38-0.01-0.77,0-1.17,0.01c0,0-16.16-0.29-18.71,18.66c-0.02,0.14-0.03,0.27-0.03,0.41
		c-0.1,2.5-1.67,28.24-25.94,29.07c0,0-27.96,5.24-30.92-31.52c-0.35-4.42-2.36-8.59-5.75-11.45c-5.14-4.33-14.27-7.39-29.03,1.54
		C1.83,96.09,1.1,97.38,1.1,98.76"/>
	<path class="st1" d="M112.84,0L112.84,0c2.44,0,5.69,0.48,7.22,1.01c0.5,0.17,1.08,0.31,1.74,0.49
		c11.24,3.07,33.81,11.59,42.32,31.8c0,0,15.42,29.4-6.92,58.23c0,0,15.37,14.1,18.38,28.61c0.5,2.42-0.84,4.84-3.16,5.72
		c-8.25,3.11-27.78,7.31-29.93-21.36c0,0-3.17-26.52-32.43-24.21c0,0-22.71,2.87-24.68,32.74c-0.19,2.88-1.08,5.68-2.71,8.05
		c-2.68,3.9-7.9,8.34-17.73,7.93c0,0-18.79-0.13-18.36-20.98c0.09-4.2-0.73-8.39-2.54-12.18c-3.9-8.17-13.18-18.09-34.89-12.39
		c0,0-4.97,1.08-8.07,3.89V2.42C1.07,0.89,1.76-0.01,2.6,0"/>
	<rect y="217.94" class="st1" width="176.81" height="26.71"/>
</g>
</svg>
