<?xml version="1.0" encoding="UTF-8"?>
<svg id="Capa_1" data-name="Capa 1" xmlns="http://www.w3.org/2000/svg" viewBox="0 0 50 50">
  <defs>
    <style>
      .cls-1 {
        fill: #fff;
        stroke-width: 0px;
      }
    </style>
  </defs>
  <path class="cls-1" d="m42.06,35.56c-.11-1.52-.21-3.03-.32-4.55-.08-1.22-.17-2.43-.25-3.65-.1-1.38-.2-2.75-.3-4.13-.14-1.93-.28-3.85-.41-5.77-.13-2-1.26-3.2-3.17-3.37-.87-.08-1.77-.07-2.64-.06-.31,0-.62,0-.93,0h0c-.32,0-.7-.08-.74-.67l-.02-.33c-.06-1.08-.13-2.2-.25-3.29-.26-2.26-1.37-4.25-3.11-5.59-1.75-1.35-3.97-1.91-6.24-1.58-3.37.49-6.23,3.38-6.65,6.74-.16,1.27-.24,2.57-.33,3.83v.18c-.05.62-.43.68-.78.69-.58,0-1.17-.01-1.75-.01s-1.17,0-1.75,0c-1.71.01-3.03,1.26-3.14,2.96-.03.4-.06.79-.08,1.18l-.15,2.07c-.13,1.78-.26,3.57-.39,5.35-.06.86-.12,1.71-.18,2.57-.07.98-.13,1.96-.2,2.94-.08,1.16-.17,2.31-.26,3.47-.09,1.16-.17,2.31-.26,3.47-.04.6-.07,1.21-.1,1.82-.06,1.26-.13,2.57-.31,3.84-.14.97.14,1.98.77,2.7.44.51,1.26,1.11,2.63,1.11.02,0,.03,0,.05,0,3.32-.04,6.7-.03,9.97-.02,1.4,0,2.8,0,4.19,0h14.39c1.11,0,1.95-.36,2.58-1.09.6-.69.82-1.55.72-2.78-.21-2.69-.41-5.37-.61-8.06ZM18.6,11.75c.05-.81.1-1.65.25-2.46.49-2.61,2.73-4.65,5.44-4.97,1.74-.2,3.42.32,4.77,1.46,1.31,1.12,2.11,2.7,2.19,4.33.05,1.06.15,2.13.24,3.16.02.16.02.4-.14.57-.15.17-.36.19-.57.19-1.42-.01-2.84,0-4.28,0h-1.51s-1.51,0-1.51,0c-1.41,0-2.83,0-4.24,0h-.02c-.2,0-.44-.03-.6-.2-.16-.18-.15-.43-.14-.6.05-.49.08-.99.11-1.48Zm21.95,33.53c-.25.27-.66.39-1.32.39H10.74c-.63,0-1.02-.12-1.28-.4-.25-.27-.35-.67-.31-1.27.1-1.47.21-2.94.32-4.41.06-.81.12-1.63.18-2.44.06-.79.11-1.58.17-2.37l.65-9.05c.1-1.42.2-2.83.3-4.25l.09-1.42c.06-.95.12-1.89.2-2.84.08-.99.52-1.39,1.54-1.4.36,0,.73,0,1.09,0,.7,0,1.4,0,2.09,0,.17,0,.41.01.57.19.16.17.15.41.14.57-.07.71-.14,1.45-.17,2.18-.02.37.06,1,.78,1.06.57.06.95-.31,1.01-.95.07-.73.11-1.48.15-2.21v-.11c.03-.5.28-.73.79-.73h0c3.97.01,7.94.01,11.91,0h0c.49,0,.74.23.77.7.02.46.06.92.09,1.37l.05.67c0,.16.02.32.05.47.11.55.49.84.98.79.51-.06.8-.41.78-.93-.02-.73-.09-1.44-.15-2.04-.04-.4-.07-.66.1-.84.17-.18.44-.18.82-.18h.81c.71,0,1.41,0,2.12,0,.91,0,1.52.57,1.59,1.48.09,1.22.18,2.45.26,3.68.07.95.13,1.91.2,2.86.09,1.25.19,2.5.28,3.74.11,1.45.22,2.91.32,4.36.08,1.14.16,2.28.23,3.42l.29,4.11c.11,1.51.22,3.01.31,4.52.04.62-.06,1.01-.3,1.28Z"/>
</svg>