<?xml version="1.0" encoding="UTF-8"?>
<svg id="Capa_1" data-name="Capa 1" xmlns="http://www.w3.org/2000/svg" viewBox="0 0 50 50">
  <defs>
    <style>
      .cls-1 {
        fill: #fff;
        stroke-width: 0px;
      }
    </style>
  </defs>
  <path class="cls-1" d="m49.74,14.27c-.73-3.68-2.35-6.52-4.95-8.68-3.15-2.61-6.81-3.58-10.87-2.86-3.12.55-5.77,2.26-8.11,5.23-.25.31-.44.57-.78.57h0c-.34,0-.52-.24-.78-.57-2.9-3.66-6.32-5.45-10.45-5.45-.24,0-.47,0-.71.02-2.73.13-5.18,1.02-7.28,2.64C2.38,7.79.45,11.5.06,16.21c-.31,3.7.65,7.34,2.86,10.81,2.03,3.2,4.67,5.83,6.98,7.99,3.08,2.87,6.33,5.67,9.46,8.38,1.29,1.12,2.59,2.23,3.87,3.36,1.17,1.03,2.43,1.01,3.64-.04l2.32-2.01c1.92-1.66,3.84-3.33,5.75-5l.27-.24c3.12-2.73,6.34-5.54,9.11-8.72,2.5-2.86,4.08-5.49,4.97-8.28.28-.87.44-1.76.61-2.7l.1-.52v-3.48l-.08-.45c-.05-.35-.11-.69-.18-1.04Zm-5.35,12.99c-2.46,3.31-5.5,6.09-8.16,8.43-1.88,1.66-3.77,3.3-5.65,4.95-1.63,1.42-3.25,2.84-4.88,4.26-.25.22-.47.3-.67.3-.28,0-.51-.16-.69-.32-1.4-1.23-2.8-2.45-4.21-3.66-2.63-2.28-5.35-4.63-7.96-7.02-2.53-2.31-5.15-4.87-7.24-8.01-1.9-2.85-2.81-5.65-2.78-8.56.06-5.07,2-8.87,5.76-11.3,1.53-.99,3.25-1.54,5.11-1.61.17,0,.35-.03.46-.04h.16c2.73.01,5.02.86,7,2.59,1.13.99,2.13,2.18,3.03,3.63.36.57.74.84,1.25.87.58.04,1-.2,1.34-.7.56-.84,1.16-1.74,1.88-2.55,2.27-2.55,4.95-3.85,7.98-3.85h.08c4.29.03,7.61,1.96,9.85,5.73,1.06,1.77,1.65,3.81,1.81,6.24.24,3.66-.9,7.14-3.49,10.63Z"/>
</svg>