<svg width="24" height="24" viewBox="0 0 24 24" fill="none" xmlns="http://www.w3.org/2000/svg">
<g clip-path="url(#clip0_44_540)">
<path d="M21.4693 3C22.5943 3.96875 23.3443 5.11719 23.7193 6.44531C24.0943 7.77344 24.1099 9.04688 23.7661 10.2656C23.4224 11.4844 22.8286 12.5312 21.9849 13.4062L13.7818 21.75C13.2818 22.25 12.688 22.5 12.0005 22.5C11.313 22.5 10.7193 22.25 10.2193 21.75L2.01613 13.4062C1.17238 12.5312 0.578635 11.4766 0.234885 10.2422C-0.108865 9.00781 -0.0932405 7.73438 0.28176 6.42188C0.65676 5.10938 1.40676 3.96875 2.53176 3C3.87551 1.875 5.46145 1.38281 7.28957 1.52344C9.1177 1.66406 10.688 2.39062 12.0005 3.70312C13.313 2.39062 14.8833 1.66406 16.7114 1.52344C18.5396 1.38281 20.1255 1.875 21.4693 3ZM20.3911 11.8125C21.2974 10.875 21.7505 9.72656 21.7505 8.36719C21.7505 7.00781 21.188 5.79688 20.063 4.73438C19.1255 3.98438 18.0396 3.65625 16.8052 3.75C15.5708 3.84375 14.5161 4.34375 13.6411 5.25L12.0005 6.89062L10.3599 5.25C9.48488 4.34375 8.4302 3.84375 7.19582 3.75C5.96145 3.65625 4.87551 3.98438 3.93801 4.73438C2.81301 5.79688 2.25051 7.00781 2.25051 8.36719C2.25051 9.72656 2.70363 10.875 3.60988 11.8125L11.8599 20.1562C11.9536 20.2812 12.0474 20.2812 12.1411 20.1562L20.3911 11.8125Z" fill="#333333"/>
</g>
<defs>
<clipPath id="clip0_44_540">
<rect width="24" height="24" fill="white" transform="matrix(1 0 0 -1 0 24)"/>
</clipPath>
</defs>
</svg>
