<svg width="33" height="32" viewBox="0 0 33 32" fill="none" xmlns="http://www.w3.org/2000/svg">
<path d="M27.3333 16V24C27.3333 26.9455 24.9455 29.3333 22 29.3333H11.3333C8.38781 29.3333 6 26.9455 6 24V16" stroke="#141718" stroke-width="2.5" stroke-linejoin="round"/>
<path d="M23.025 2.66602H10.3083C7.88519 2.66602 5.70618 4.32569 4.80625 6.85675L3.79561 9.69918C3.48968 10.5596 3.27821 11.4803 3.50134 12.3659C4.0298 14.463 5.74431 15.9993 7.77777 15.9993C10.2324 15.9993 12.2222 13.7608 12.2222 10.9993C12.2222 13.7608 14.2121 15.9993 16.6667 15.9993C19.1213 15.9993 21.1111 13.7608 21.1111 10.9993C21.1111 13.7608 23.1009 15.9993 25.5555 15.9993C27.589 15.9993 29.3035 14.463 29.832 12.3658C30.0551 11.4803 29.8436 10.5596 29.5377 9.69918L28.5271 6.85674C27.6271 4.32569 25.4481 2.66602 23.025 2.66602Z" stroke="#141718" stroke-width="2.5" stroke-linejoin="round"/>
<path d="M12.6666 25.334C12.6666 23.1248 14.4575 21.334 16.6666 21.334C18.8758 21.334 20.6666 23.1248 20.6666 25.334V29.334H12.6666V25.334Z" stroke="#141718" stroke-width="2.5" stroke-linejoin="round"/>
</svg>
