<?xml version="1.0" encoding="UTF-8"?>
<svg id="Capa_1" data-name="Capa 1" xmlns="http://www.w3.org/2000/svg" viewBox="0 0 50 50">
  <defs>
    <style>
      .cls-1 {
        stroke-width: 0px;
      }
    </style>
  </defs>
  <path class="cls-1" d="m25,13.86c-6.14,0-11.14,5-11.14,11.14s5,11.14,11.14,11.14,11.14-5,11.14-11.14-5-11.14-11.14-11.14Zm0,19.78c-4.76,0-8.64-3.87-8.64-8.64s3.88-8.64,8.64-8.64,8.64,3.87,8.64,8.64-3.87,8.64-8.64,8.64Z"/>
  <path class="cls-1" d="m46.33,10.01c-.59-1.52-1.36-2.7-2.5-3.84-1.14-1.14-2.33-1.91-3.84-2.5-1.58-.61-3.24-.93-5.4-1.03-2.48-.11-3.31-.14-9.59-.14s-7.11.03-9.59.14c-2.16.1-3.82.42-5.4,1.03-1.52.59-2.7,1.36-3.84,2.5-1.14,1.14-1.91,2.33-2.5,3.84-.61,1.58-.93,3.24-1.03,5.4-.11,2.47-.14,3.29-.14,9.59s.03,7.12.14,9.59c.1,2.16.41,3.82,1.03,5.4.59,1.52,1.36,2.7,2.5,3.84,1.14,1.14,2.32,1.91,3.84,2.5,1.58.61,3.24.93,5.4,1.03,2.49.11,3.32.14,9.59.14s7.1-.03,9.59-.14c2.16-.1,3.82-.41,5.4-1.03,1.52-.59,2.7-1.36,3.84-2.5s1.91-2.33,2.5-3.84c.61-1.58.93-3.24,1.03-5.4.11-2.5.14-3.32.14-9.59s-.03-7.09-.14-9.59c-.1-2.16-.41-3.82-1.03-5.4Zm-1.47,24.46c-.11,2.4-.52,3.72-.86,4.61-.46,1.19-1.04,2.08-1.94,2.98-.9.9-1.79,1.48-2.98,1.94-.88.34-2.2.75-4.61.86-2.5.11-3.24.14-9.47.14s-6.98-.02-9.47-.14c-2.4-.11-3.73-.52-4.61-.86-1.21-.47-2.07-1.03-2.98-1.94-.9-.9-1.48-1.79-1.94-2.98-.34-.88-.75-2.2-.86-4.61-.11-2.5-.14-3.25-.14-9.47s.02-6.97.14-9.48c.11-2.4.52-3.72.86-4.61.46-1.19,1.04-2.08,1.94-2.98.91-.91,1.77-1.47,2.98-1.94.88-.34,2.21-.75,4.61-.86,2.48-.11,3.22-.14,9.47-.14s6.99.02,9.47.14c2.4.11,3.72.52,4.6.86,1.19.46,2.08,1.04,2.98,1.94.9.9,1.48,1.79,1.94,2.98.34.88.75,2.2.86,4.61.11,2.47.14,3.21.14,9.48s-.02,7.01-.14,9.47Z"/>
  <path class="cls-1" d="m37.46,10.58c-1.07,0-1.95.88-1.95,1.95s.87,1.95,1.95,1.95,1.95-.87,1.95-1.95-.87-1.95-1.95-1.95Z"/>
</svg>