<svg width="161" height="120" xmlns="http://www.w3.org/2000/svg" xmlns:xlink="http://www.w3.org/1999/xlink" xml:space="preserve" overflow="hidden"><g transform="translate(-244 -265)"><path d="M405 265 372.49 385 244 385 276.518 265 405 265Z" fill="#FD1F4A" fill-rule="evenodd"/><path d="M286.018 368.15C286.759 363.27 287.197 358.744 288.19 354.345 289.169 350.014 290.718 345.811 292.134 341.157 289.687 341.684 287.434 342.172 284.721 342.751 285.055 341.233 285.218 340.195 285.507 339.195 287.263 332.992 289.814 327.127 293.179 321.661 294.061 320.225 293.95 319.3 292.949 318.03 288.101 311.902 284.41 305.098 281.786 297.699 281.497 296.879 281.311 296.015 281 294.887 281.8 295.022 282.312 295.06 282.801 295.203 291.229 297.571 299.22 300.962 306.618 305.722 307.834 306.504 308.871 306.639 310.235 306.09 317.767 303.075 325.335 300.158 332.896 297.211 333.437 297 334.007 296.872 334.882 296.617 335.016 298.526 335.142 300.263 335.29 302.353 337.654 301.361 339.767 300.504 341.865 299.594 348.922 296.526 355.979 293.428 363.035 290.353 364.651 289.647 365.281 289.962 365.763 291.646 365.815 291.819 365.897 292.007 365.867 292.173 365.133 295.714 366.66 299.015 366.927 302.444 367.298 307.105 366.275 311.526 363.614 315.24 360.004 320.263 356.119 325.113 352.05 329.766 346.594 336.007 344.504 343.037 346.075 351.225 346.401 352.932 346.498 354.676 346.809 356.382 347.017 357.548 346.654 357.977 345.49 358.127 341.376 358.631 337.328 358.308 333.392 357.029 331.984 356.571 331.458 356.977 330.657 358.217 328.389 361.706 325.809 364.977 323.37 368.352 322.725 369.247 322.088 369.097 321.258 368.608 317.492 366.42 313.949 363.916 311.102 360.563 309.954 359.21 309.042 359.135 307.522 359.984 301.488 363.345 295.047 365.728 288.427 367.623 287.819 367.796 287.189 367.894 286.033 368.142M339.085 341.992C339.33 341.203 339.515 340.887 339.522 340.556 339.604 335.992 341.131 331.924 343.985 328.496 348.21 323.421 352.547 318.421 357.031 313.579 360.315 310.03 361.916 306.173 360.723 301.315 360.204 299.203 360.107 299.127 358.18 300.21 350.486 304.541 342.792 308.872 335.09 313.195 331.806 315.037 328.515 316.857 324.949 318.842 325.542 315.308 326.076 312.135 326.654 308.729 320.087 311.458 308.241 330.751 309.094 337.067 313.63 333.406 318.093 329.789 323.8 327.654 323.363 330.082 322.859 332.059 322.674 334.075 322.489 336.075 322.014 338.15 323 340.571 326.684 335.932 330.271 331.714 335.157 328.188 334.875 333.39 336.268 337.668 339.093 341.999M297.678 314.616C299.42 312.91 300.747 311.609 302.408 309.977 298.82 308.158 295.58 306.519 292.349 304.872L291.763 305.586C293.683 308.511 295.603 311.443 297.685 314.609" fill="#FFFFFF" fill-rule="evenodd"/><path d="M300.707 289C305.683 291.796 310.104 295.24 314 299.811 312.001 300.592 310.294 301.268 308.587 301.93 308.434 301.987 308.193 302.036 308.076 301.965 306.274 300.867 303.713 300.135 302.852 298.55 301.35 295.761 300.898 292.451 300 289.359 300.234 289.24 300.467 289.127 300.7 289.007" fill="#FFFFFF" fill-rule="evenodd"/></g></svg>