<svg width="219" height="57" viewBox="0 0 219 57" fill="none" xmlns="http://www.w3.org/2000/svg">
<g clip-path="url(#clip0_449_247)">
<path d="M26.1471 0.5C26.7099 0.5 27.4415 0.612563 27.8074 0.725126C27.9199 0.753266 28.0325 0.809548 28.2013 0.837688C30.7621 1.51307 35.94 3.37035 37.9099 7.81658C37.9099 7.81658 41.4275 14.2608 36.3059 20.5925C36.3059 20.5925 39.8516 23.6879 40.527 26.8678C40.6395 27.4025 40.33 27.909 39.7953 28.106C37.9099 28.7814 33.4355 29.71 32.929 23.4347C32.929 23.4347 32.2255 17.6095 25.4998 18.1161C25.4998 18.1161 20.2938 18.7352 19.8436 25.292C19.7873 25.9392 19.5903 26.5302 19.2245 27.0648C18.6054 27.909 17.3953 28.894 15.1441 28.8095C15.1441 28.8095 10.8385 28.7814 10.9511 24.1945C10.9511 23.294 10.7822 22.3653 10.3601 21.5211C9.45964 19.7482 7.32094 17.5533 2.34004 18.8196C2.34004 18.8196 1.21441 19.0447 0.510892 19.6638V1.03467C0.482751 0.696985 0.651596 0.5 0.848581 0.5" fill="#0C4692"/>
<path d="M0.509766 22.1685V43.274C0.509766 43.7524 0.903735 44.1464 1.41027 44.1464H25.9208C27.0464 44.1464 28.2002 43.9775 29.2977 43.668C32.8153 42.6549 39.7379 39.7001 40.6947 31.7644C40.8073 30.8639 39.963 30.1041 39.0062 30.273C36.3892 30.7514 31.7459 30.5825 31.0143 23.9413C30.761 21.7182 28.8475 19.9735 26.5399 19.9454C26.4461 19.9454 26.3523 19.9454 26.2585 19.9454C26.2585 19.9454 22.5439 19.8891 21.9811 24.0539C21.9624 24.0727 21.953 24.1008 21.953 24.1383C21.953 24.673 21.5872 30.3293 16.0153 30.4981C16.0153 30.4981 9.59921 31.6519 8.92384 23.6036C8.83941 22.6187 8.38916 21.7182 7.60122 21.0991C6.41931 20.1423 4.3369 19.467 0.931876 21.4368C0.67861 21.5775 0.509766 21.8589 0.509766 22.1685Z" fill="#15294C"/>
<path d="M183.78 54.4471C183.582 54.4471 183.412 54.3771 183.27 54.2372C183.13 54.0953 183.06 53.9254 183.06 53.7276C183.06 53.5317 183.13 53.3638 183.27 53.2239C183.412 53.084 183.582 53.0141 183.78 53.0141C183.971 53.0141 184.139 53.084 184.283 53.2239C184.427 53.3638 184.499 53.5317 184.499 53.7276C184.499 53.8595 184.465 53.9804 184.397 54.0903C184.331 54.1983 184.244 54.2852 184.136 54.3512C184.028 54.4151 183.909 54.4471 183.78 54.4471ZM185.548 54.3691V49.7643H186.825V54.3691H185.548ZM186.189 49.1707C185.999 49.1707 185.836 49.1077 185.701 48.9818C185.567 48.8539 185.5 48.701 185.5 48.5231C185.5 48.3473 185.567 48.1964 185.701 48.0705C185.836 47.9425 185.999 47.8786 186.189 47.8786C186.379 47.8786 186.541 47.9425 186.675 48.0705C186.811 48.1964 186.879 48.3473 186.879 48.5231C186.879 48.701 186.811 48.8539 186.675 48.9818C186.541 49.1077 186.379 49.1707 186.189 49.1707ZM190.297 49.7643V50.7236H187.524V49.7643H190.297ZM188.154 48.6611H189.431V52.9541C189.431 53.072 189.449 53.164 189.485 53.2299C189.521 53.2939 189.571 53.3388 189.635 53.3648C189.701 53.3908 189.776 53.4038 189.862 53.4038C189.922 53.4038 189.982 53.3988 190.042 53.3888C190.102 53.3768 190.148 53.3678 190.18 53.3618L190.381 54.3122C190.317 54.3322 190.227 54.3552 190.111 54.3811C189.995 54.4091 189.854 54.4261 189.689 54.4321C189.381 54.4441 189.111 54.4031 188.879 54.3092C188.649 54.2152 188.47 54.0693 188.342 53.8715C188.215 53.6736 188.152 53.4238 188.154 53.122V48.6611ZM194.903 51.0774L193.734 51.1493C193.714 51.0494 193.671 50.9595 193.605 50.8795C193.539 50.7976 193.452 50.7326 193.344 50.6847C193.238 50.6347 193.111 50.6097 192.963 50.6097C192.765 50.6097 192.598 50.6517 192.462 50.7356C192.326 50.8176 192.259 50.9275 192.259 51.0654C192.259 51.1753 192.302 51.2683 192.39 51.3442C192.478 51.4202 192.629 51.4811 192.843 51.5271L193.677 51.695C194.124 51.7869 194.458 51.9348 194.678 52.1387C194.898 52.3425 195.008 52.6103 195.008 52.9421C195.008 53.2439 194.919 53.5087 194.741 53.7366C194.565 53.9644 194.323 54.1423 194.015 54.2702C193.71 54.3961 193.357 54.4591 192.957 54.4591C192.347 54.4591 191.862 54.3322 191.5 54.0783C191.14 53.8225 190.929 53.4748 190.867 53.0351L192.124 52.9691C192.162 53.155 192.254 53.2969 192.399 53.3948C192.545 53.4907 192.732 53.5387 192.96 53.5387C193.184 53.5387 193.364 53.4957 193.5 53.4098C193.638 53.3219 193.708 53.2089 193.71 53.071C193.708 52.9551 193.659 52.8602 193.563 52.7862C193.467 52.7103 193.319 52.6523 193.119 52.6123L192.321 52.4535C191.872 52.3635 191.537 52.2076 191.317 51.9858C191.099 51.7639 190.99 51.4811 190.99 51.1374C190.99 50.8416 191.07 50.5867 191.23 50.3729C191.392 50.159 191.619 49.9941 191.911 49.8782C192.205 49.7623 192.548 49.7043 192.942 49.7043C193.524 49.7043 193.981 49.8273 194.315 50.0731C194.651 50.3189 194.847 50.6537 194.903 51.0774ZM197.766 54.3691V49.7643H198.983V50.5767H199.037C199.133 50.3069 199.293 50.0941 199.517 49.9382C199.74 49.7823 200.008 49.7043 200.32 49.7043C200.636 49.7043 200.905 49.7833 201.126 49.9412C201.348 50.0971 201.496 50.3089 201.57 50.5767H201.618C201.712 50.3129 201.882 50.1021 202.128 49.9442C202.376 49.7843 202.668 49.7043 203.006 49.7043C203.436 49.7043 203.785 49.8412 204.052 50.1151C204.322 50.3869 204.457 50.7726 204.457 51.2723V54.3691H203.183V51.5241C203.183 51.2683 203.115 51.0764 202.979 50.9485C202.843 50.8206 202.673 50.7566 202.47 50.7566C202.238 50.7566 202.057 50.8306 201.927 50.9785C201.797 51.1244 201.732 51.3172 201.732 51.5571V54.3691H200.494V51.4971C200.494 51.2713 200.429 51.0914 200.299 50.9575C200.171 50.8236 200.002 50.7566 199.792 50.7566C199.65 50.7566 199.523 50.7926 199.409 50.8645C199.297 50.9345 199.208 51.0334 199.142 51.1613C199.076 51.2873 199.043 51.4352 199.043 51.605V54.3691H197.766ZM207.547 54.4591C207.081 54.4591 206.678 54.3601 206.338 54.1623C206.001 53.9624 205.74 53.6846 205.556 53.3289C205.372 52.9711 205.28 52.5564 205.28 52.0847C205.28 51.609 205.372 51.1933 205.556 50.8376C205.74 50.4798 206.001 50.202 206.338 50.0041C206.678 49.8043 207.081 49.7043 207.547 49.7043C208.012 49.7043 208.414 49.8043 208.752 50.0041C209.091 50.202 209.353 50.4798 209.537 50.8376C209.721 51.1933 209.813 51.609 209.813 52.0847C209.813 52.5564 209.721 52.9711 209.537 53.3289C209.353 53.6846 209.091 53.9624 208.752 54.1623C208.414 54.3601 208.012 54.4591 207.547 54.4591ZM207.553 53.4698C207.764 53.4698 207.941 53.4098 208.083 53.2899C208.225 53.168 208.332 53.0021 208.404 52.7922C208.478 52.5824 208.515 52.3435 208.515 52.0757C208.515 51.8079 208.478 51.5691 208.404 51.3592C208.332 51.1493 208.225 50.9835 208.083 50.8615C207.941 50.7396 207.764 50.6787 207.553 50.6787C207.339 50.6787 207.159 50.7396 207.013 50.8615C206.869 50.9835 206.76 51.1493 206.686 51.3592C206.614 51.5691 206.578 51.8079 206.578 52.0757C206.578 52.3435 206.614 52.5824 206.686 52.7922C206.76 53.0021 206.869 53.168 207.013 53.2899C207.159 53.4098 207.339 53.4698 207.553 53.4698ZM210.643 54.3691V49.7643H211.882V50.5677H211.93C212.013 50.2819 212.154 50.0661 212.352 49.9202C212.55 49.7723 212.778 49.6983 213.036 49.6983C213.1 49.6983 213.169 49.7023 213.243 49.7103C213.317 49.7183 213.382 49.7293 213.437 49.7433V50.8765C213.378 50.8585 213.295 50.8426 213.189 50.8286C213.083 50.8146 212.986 50.8076 212.898 50.8076C212.71 50.8076 212.542 50.8486 212.394 50.9305C212.248 51.0104 212.132 51.1224 212.046 51.2663C211.963 51.4102 211.921 51.5761 211.921 51.7639V54.3691H210.643ZM215.982 54.4591C215.508 54.4591 215.101 54.3631 214.759 54.1713C214.419 53.9774 214.157 53.7036 213.973 53.3498C213.789 52.9941 213.698 52.5734 213.698 52.0877C213.698 51.614 213.789 51.1983 213.973 50.8406C214.157 50.4828 214.416 50.204 214.75 50.0041C215.086 49.8043 215.479 49.7043 215.931 49.7043C216.235 49.7043 216.518 49.7533 216.779 49.8512C217.043 49.9472 217.273 50.0921 217.469 50.2859C217.667 50.4798 217.821 50.7236 217.931 51.0174C218.041 51.3092 218.096 51.651 218.096 52.0427V52.3935H214.207V51.602H216.893C216.893 51.4182 216.853 51.2553 216.773 51.1134C216.694 50.9715 216.583 50.8605 216.441 50.7806C216.301 50.6987 216.138 50.6577 215.952 50.6577C215.758 50.6577 215.586 50.7027 215.436 50.7926C215.288 50.8805 215.173 50.9995 215.089 51.1493C215.005 51.2972 214.962 51.4621 214.96 51.644V52.3965C214.96 52.6243 215.002 52.8212 215.086 52.9871C215.172 53.153 215.292 53.2809 215.448 53.3708C215.604 53.4608 215.789 53.5057 216.003 53.5057C216.145 53.5057 216.275 53.4857 216.393 53.4458C216.511 53.4058 216.612 53.3458 216.696 53.2659C216.779 53.186 216.843 53.088 216.887 52.9721L218.069 53.05C218.009 53.3339 217.886 53.5817 217.7 53.7935C217.516 54.0034 217.278 54.1673 216.986 54.2852C216.697 54.4011 216.362 54.4591 215.982 54.4591Z" fill="#0C4692"/>
<path d="M89.4065 21.8307C89.4065 33.6216 79.4166 43.1894 67.091 43.1894C54.7653 43.1894 44.7754 33.6216 44.7754 21.8307C44.7754 10.0397 54.7653 0.5 67.091 0.5C79.4166 0.5 89.4065 10.0397 89.4065 21.8307Z" fill="#0C4692"/>
<path d="M135.726 22.3932C135.726 34.1841 125.736 43.7519 113.41 43.7519C101.056 43.7519 91.0664 34.1841 91.0664 22.3932C91.0664 10.6022 101.056 1.0625 113.41 1.0625C125.736 1.0625 135.726 10.6022 135.726 22.3932Z" fill="#0C4692"/>
<path d="M137.92 42.9071V22.9835H146.25V22.3926C146.25 22.3926 137.695 21.0418 136.795 14.8227C136.795 14.8227 134.769 5.25488 145.603 2.80664H178.415V22.8428H171.267L171.211 23.4619C171.211 23.4619 182.326 25.6006 178.415 37.5041C178.415 37.5041 175.967 42.8509 169.522 42.9071H137.92Z" fill="#0C4692"/>
<path d="M180.555 2.80664V22.8428H189.363V43.1323H210.44V22.9554H218.488V2.80664H180.555Z" fill="#0C4692"/>
</g>
<defs>
<clipPath id="clip0_449_247">
<rect width="218.09" height="56" fill="white" transform="translate(0.455078 0.5)"/>
</clipPath>
</defs>
</svg>
