<?xml version="1.0" encoding="UTF-8"?>
<svg id="Capa_1" data-name="Capa 1" xmlns="http://www.w3.org/2000/svg" viewBox="0 0 810 50">
  <defs>
    <style>
      .cls-1 {
        fill: #fff;
        stroke-width: 0px;
      }
    </style>
  </defs>
  <path class="cls-1" d="m19.22,1L2.51,49h7.59l4.66-13.45s.42-.88,2.24-.88l9.42.06c1.11,0,1.95-.14,2.53-.28l5.11,14.49h7.7L25.05,1h-5.83Zm7.31,26.57c-.25.07-.64.14-1.2.14h-7.53c-.1,0-.19,0-.28,0l4.6-12.97,4.41,12.82Z"/>
  <polygon class="cls-1" points="83.37 36.04 70.63 1 63.93 1 63.93 49 71.24 49 71.24 24.04 80.35 49 86.44 49 95.54 24.04 95.54 49 102.86 49 102.86 1 96.15 1 83.37 36.04"/>
  <path class="cls-1" d="m135.6,28.04c.04-.11.37-.49,1.35-.49h21.66v-7.31h-21.26c-.75,0-1.34.06-1.79.14v-12.05h23.05V1h-30.37v48h30.42v-7.31h-23.05v-13.65Z"/>
  <path class="cls-1" d="m215.9,14.21c0-7.29-5.9-13.21-13.16-13.21h-20.23v48h7.31v-21.04c.03-.17.39-.42,1.22-.42h9.07s.52.01.96.96l9.14,20.5h7.94l-10.06-22.62c4.71-2.17,7.81-6.95,7.81-12.17Zm-7.37,0c0,3.27-2.63,5.97-5.84,6.02h-11.53c-.54,0-.97.03-1.34.07v-12.05h12.86c3.22,0,5.84,2.67,5.84,5.96Z"/>
  <rect class="cls-1" x="241.4" y="1" width="7.31" height="48"/>
  <path class="cls-1" d="m291.99,8.31c3.8,0,7.44,2.31,9.74,6.19l1.89,3.17,6.33-3.84-1.96-3.16c-3.75-6.05-9.71-9.66-15.93-9.66-11,0-19.95,10.79-19.95,24.06,0,11.51,7.63,23.94,19.95,23.94,6.24,0,12.2-3.64,15.94-9.72l1.95-3.16-6.33-3.84-1.89,3.17c-2.29,3.87-5.93,6.18-9.73,6.18-6.94,0-12.58-7.46-12.58-16.63s5.64-16.69,12.58-16.69Z"/>
  <path class="cls-1" d="m346.88,1l-16.71,48h7.59l4.66-13.45s.42-.87,2.23-.87l9.42.06c1.11,0,1.95-.14,2.53-.28l5.11,14.49h7.7L352.71,1h-5.83Zm7.31,26.57c-.25.07-.64.14-1.2.14h-7.53c-.1,0-.19,0-.28,0l4.6-12.97,4.41,12.82Z"/>
  <polygon class="cls-1" points="416.59 34.91 398.15 1 391.59 1 391.59 49 398.91 49 398.91 17.65 415.98 49 423.9 49 423.9 1 416.59 1 416.59 34.91"/>
  <path class="cls-1" d="m512.37,23.57c2.4-2.46,3.81-5.89,3.81-9.36,0-7.29-5.93-13.21-13.22-13.21h-20.18v48h20.18c3.85,0,7.45-1.49,10.15-4.19,2.67-2.61,4.2-6.34,4.2-10.22,0-4.25-1.88-8.37-4.95-11.02Zm-9.46-3.34h-11.75c-.65,0-1.11-.15-1.11-.37v-11.44l12.86-.11c3.26,0,5.9,2.65,5.9,5.9s-2.65,6.02-5.9,6.02Zm-12.92,7.31c.34.04.77.07,1.28.07h11.53c3.91,0,7.1,3.16,7.1,7.04s-3.16,7.11-7.04,7.16h-12.86v-14.27Z"/>
  <path class="cls-1" d="m574.89,14.21c0-7.29-5.9-13.21-13.16-13.21h-20.23v48h7.31v-21.04c.03-.17.39-.42,1.22-.42h9.07s.52.01.96.96l9.14,20.5h7.94l-10.06-22.62c4.71-2.17,7.81-6.95,7.81-12.17Zm-7.37,0c0,3.27-2.63,5.97-5.85,6.02h-11.53c-.54,0-.98.03-1.34.07v-12.05h12.86c3.22,0,5.85,2.67,5.85,5.96Z"/>
  <path class="cls-1" d="m619.09,1h-5.83l-16.71,48h7.59l4.66-13.45s.42-.88,2.23-.88l9.42.06c1.11,0,1.95-.14,2.53-.28l5.11,14.49h7.7l-16.51-47.35-.21-.6Zm1.49,26.57c-.25.07-.64.14-1.2.14h-7.53c-.1,0-.19,0-.28,0l4.6-12.97,4.41,12.82Z"/>
  <polygon class="cls-1" points="682.97 34.92 664.53 1 657.97 1 657.97 49 665.29 49 665.29 17.65 682.36 49 690.28 49 690.28 1 682.97 1 682.97 34.92"/>
  <path class="cls-1" d="m729.96,1h-15.04v48h15.04c13.49,0,19.78-14.36,19.78-24.06,0-11.51-7.56-23.94-19.78-23.94Zm12.41,23.94c0,8.92-5.82,16.74-12.46,16.74h-7.67V8.37h7.73c6.84,0,12.41,7.43,12.41,16.57Z"/>
  <path class="cls-1" d="m791.3,20.77c-8.28-2.04-10.85-3.23-10.85-6.73,0-3.75,2.96-5.9,8.13-5.9,3.75,0,6.61.81,10.96,5.11l.55.54,5.77-4.35-.62-.72c-5.57-6.41-10.66-7.72-16.59-7.72-9.41,0-15.5,5.19-15.5,13.21,0,9.73,10.25,12.18,16.37,13.65,8.48,2.06,10.68,3.42,10.68,6.61,0,4.62-3.67,7.27-10.07,7.27-7.35,0-10-2.68-12.48-5.93l-.54-.7-5.83,4.39.57.72c5.8,7.29,11.52,8.78,18.33,8.78,10.36,0,17.32-5.84,17.32-14.53,0-9.69-9.75-12.1-16.2-13.7Z"/>
</svg>