<svg width="87" height="52" viewBox="0 0 87 52" fill="none" xmlns="http://www.w3.org/2000/svg">
<mask id="mask0_880_6644" style="mask-type:luminance" maskUnits="userSpaceOnUse" x="0" y="0" width="87" height="52">
<path d="M87 0H0V52H87V0Z" fill="white"/>
</mask>
<g mask="url(#mask0_880_6644)">
<mask id="mask1_880_6644" style="mask-type:luminance" maskUnits="userSpaceOnUse" x="-390" y="-453" width="956" height="538">
<path d="M565.617 -452.656H-389.559V84.6302H565.617V-452.656Z" fill="white"/>
</mask>
<g mask="url(#mask1_880_6644)">
<mask id="mask2_880_6644" style="mask-type:luminance" maskUnits="userSpaceOnUse" x="-390" y="-453" width="956" height="538">
<path d="M565.617 -452.658H-389.559V84.6282H565.617V-452.658Z" fill="white"/>
</mask>
<g mask="url(#mask2_880_6644)">
<path d="M42.5352 10.9333C42.5352 10.1174 42.6894 9.32644 43.0128 8.57523C43.3212 7.85388 43.754 7.20715 44.3112 6.65494C44.8634 6.09775 45.5101 5.66992 46.2315 5.35651C46.9827 5.03314 47.7737 4.87891 48.5896 4.87891C49.4054 4.87891 50.1965 5.03314 50.9477 5.35651C51.669 5.66992 52.3158 6.09775 52.868 6.65494C53.4202 7.21213 53.853 7.85388 54.1664 8.57523C54.4898 9.32644 54.644 10.1174 54.644 10.9333C54.644 11.7492 54.4898 12.5402 54.1664 13.2914C53.858 14.0128 53.4252 14.6595 52.868 15.2117C52.3158 15.7639 51.6641 16.2017 50.9477 16.5102C50.1965 16.8335 49.4054 16.9878 48.5896 16.9878C47.7737 16.9878 46.9827 16.8335 46.2315 16.5102C45.5101 16.1967 44.8634 15.7689 44.3112 15.2117C43.759 14.6545 43.3262 14.0128 43.0128 13.2914C42.6894 12.5402 42.5352 11.7492 42.5352 10.9333ZM44.8236 10.9333C44.8236 11.4557 44.9181 11.9582 45.1171 12.4407C45.3111 12.9034 45.5748 13.3213 45.923 13.6844C46.2663 14.0377 46.6643 14.3113 47.117 14.5103C47.5847 14.7142 48.0772 14.8088 48.5896 14.8088C49.102 14.8088 49.5945 14.7142 50.0621 14.5103C50.5149 14.3113 50.9129 14.0377 51.2561 13.6844C51.6044 13.3213 51.868 12.9034 52.0621 12.4407C52.261 11.9582 52.3556 11.4557 52.3556 10.9333C52.3556 10.411 52.261 9.90851 52.0621 9.42595C51.868 8.96329 51.6044 8.5454 51.2561 8.18223C50.9129 7.82901 50.5149 7.55538 50.0621 7.35638C49.5945 7.15241 49.102 7.0579 48.5896 7.0579C48.0772 7.0579 47.5847 7.15241 47.117 7.35638C46.6643 7.55538 46.2663 7.82901 45.923 8.18223C45.5748 8.5454 45.3111 8.96329 45.1171 9.42595C44.9181 9.90851 44.8236 10.411 44.8236 10.9333Z" fill="#201F1E"/>
<path d="M4.61136 16.9917C4.3079 16.9917 4.03427 16.8723 3.82035 16.6584C3.60643 16.4445 3.48704 16.1708 3.48704 15.8674V2.75359C3.43729 2.57449 3.44228 2.38546 3.50198 2.20637C3.58158 1.95762 3.77558 1.77356 4.01935 1.68401C4.19347 1.61934 4.38749 1.60938 4.57156 1.60938H8.14849C9.18327 1.60938 10.1882 1.80836 11.1384 2.22127C12.0538 2.61926 12.8746 3.17148 13.581 3.87294C14.2875 4.57937 14.8347 5.40024 15.2327 6.31562C15.6456 7.26582 15.8446 8.27075 15.8446 9.30552C15.8446 10.3403 15.6456 11.3452 15.2327 12.2954C14.8347 13.2108 14.2825 14.0316 13.581 14.7381C12.8746 15.4445 12.0538 15.9917 11.1334 16.3798C10.1832 16.7827 9.17829 16.9768 8.14351 16.9768H4.61136V16.9917ZM5.73569 3.85803V14.7431H8.14351C8.87482 14.7431 9.58125 14.6087 10.2529 14.3202C10.9046 14.0416 11.4866 13.6536 11.9841 13.1511C12.4866 12.6486 12.8796 12.0666 13.1632 11.4149C13.4567 10.7482 13.596 10.0418 13.596 9.31047C13.596 8.57916 13.4567 7.87274 13.1632 7.20611C12.8746 6.5544 12.4866 5.97234 11.9841 5.46988C11.4817 4.96742 10.8996 4.57441 10.2479 4.29084C9.58127 3.99732 8.87482 3.85803 8.14351 3.85803H5.73569Z" fill="#EA5C2D"/>
<path d="M19.869 12.0369C19.9287 12.2558 20.0132 12.4697 20.1177 12.6786C20.3266 13.1015 20.6003 13.4746 20.9435 13.798C21.2818 14.1164 21.6748 14.3651 22.1027 14.5442C22.5504 14.7283 23.023 14.8128 23.5106 14.8128C23.9981 14.8128 24.4508 14.7233 24.8936 14.5542C25.3214 14.395 25.7045 14.1562 26.0279 13.8328C26.2467 13.6139 26.5303 13.4995 26.8437 13.4995C27.1572 13.4995 27.4357 13.6139 27.6546 13.8328C27.6696 13.8477 27.6845 13.8627 27.6944 13.8776C27.8586 14.0716 27.9531 14.3054 27.983 14.5542C28.0228 14.8974 27.8984 15.2158 27.6546 15.4596C27.6397 15.4745 27.6248 15.4894 27.6099 15.4994C27.386 15.6834 27.1522 15.8526 26.9084 16.0068C26.6199 16.1909 26.3114 16.3501 25.993 16.4894C25.6299 16.6486 25.2418 16.768 24.8538 16.8526C24.411 16.9471 23.9583 16.9918 23.5106 16.9918C22.6947 16.9918 21.9037 16.8376 21.1525 16.5143C20.4361 16.2058 19.7894 15.778 19.2322 15.2307C18.675 14.6835 18.2422 14.0368 17.9288 13.3154C17.6054 12.5692 17.4512 11.7732 17.4512 10.9573C17.4512 10.0867 17.6004 9.23603 17.9536 8.43507C18.277 7.70377 18.7347 7.05203 19.3267 6.50977C19.9088 5.97746 20.5853 5.57452 21.3266 5.29593C22.0828 5.01236 22.8787 4.87305 23.6847 4.87305C24.4906 4.87305 25.2766 5.02229 26.0179 5.34069C26.7243 5.64415 27.3561 6.072 27.8934 6.62421C28.4307 7.17642 28.8436 7.82314 29.1322 8.53953C29.4406 9.29571 29.5799 10.0917 29.5799 10.9076C29.5799 11.211 29.4605 11.4847 29.2466 11.6986C29.0178 11.9274 28.7093 12.0319 28.3909 12.0319H19.864L19.869 12.0369ZM19.9137 9.83301H27.2019C27.1422 9.60914 27.0676 9.38527 26.9681 9.17135C26.7791 8.75346 26.5254 8.38035 26.197 8.06196C25.8736 7.74357 25.4956 7.49978 25.0777 7.32566C24.6349 7.13661 24.1672 7.05702 23.6847 7.05702C23.2021 7.05702 22.7096 7.14657 22.247 7.33064C21.7992 7.50973 21.3863 7.76346 21.0231 8.08683C20.6699 8.40522 20.3814 8.77833 20.1625 9.20119C20.058 9.40516 19.9734 9.61909 19.9038 9.83301" fill="#EBC986"/>
<path d="M39.7089 8.02765C39.3806 7.72419 39.0025 7.49533 38.5846 7.33614C38.1468 7.16699 37.6891 7.08241 37.2215 7.08241C36.7091 7.08241 36.2166 7.17692 35.7489 7.38089C35.2962 7.57989 34.8982 7.85352 34.555 8.20674C34.2067 8.56991 33.9431 8.9878 33.7491 9.45046C33.5501 9.93302 33.4555 10.4355 33.4555 10.9578C33.4555 11.4802 33.5501 11.9827 33.7491 12.4652C33.9381 12.9279 34.2067 13.3458 34.555 13.709C34.8982 14.0622 35.2962 14.3358 35.7489 14.5348C36.2166 14.7387 36.7091 14.8333 37.2215 14.8333C37.6991 14.8333 38.1618 14.7437 38.6045 14.5746C39.0324 14.4154 39.4154 14.1766 39.7388 13.8532C39.9577 13.6343 40.2413 13.5199 40.5497 13.5199C40.8233 13.5199 41.0721 13.6244 41.2909 13.7885C41.3457 13.8283 41.3855 13.8681 41.4253 13.9229C41.5894 14.1418 41.6939 14.3905 41.6939 14.6641C41.6939 14.9726 41.5795 15.2561 41.3606 15.475C41.3457 15.4899 41.3307 15.5049 41.3158 15.5148C41.0969 15.6989 40.8581 15.8681 40.6144 16.0223C40.3258 16.2063 40.0174 16.3655 39.699 16.5048C39.3358 16.664 38.9528 16.7834 38.5597 16.868C38.117 16.9625 37.6643 17.0073 37.2165 17.0073C36.4006 17.0073 35.6096 16.8531 34.8584 16.5297C34.1371 16.2213 33.4904 15.7835 32.9381 15.2313C32.3859 14.6741 31.9482 14.0323 31.6397 13.311C31.3163 12.5598 31.1621 11.7688 31.1621 10.9529C31.1621 10.137 31.3163 9.34597 31.6397 8.59477C31.9482 7.87341 32.381 7.22668 32.9381 6.67447C33.4904 6.11729 34.1371 5.68448 34.8584 5.37604C35.6096 5.05267 36.4006 4.89844 37.2165 4.89844C37.9379 4.89844 38.6543 5.01785 39.3458 5.2268C40.097 5.45067 40.7636 5.83371 41.3208 6.38592C41.3457 6.41079 41.3656 6.43071 41.3855 6.46056C41.5496 6.67447 41.6541 6.92819 41.6541 7.20181C41.6541 7.51025 41.5397 7.79382 41.3208 8.01271C41.2959 8.03759 41.276 8.05749 41.2462 8.07739C41.0323 8.24156 40.7785 8.34602 40.5049 8.34602C40.2014 8.34602 39.9229 8.2366 39.704 8.02765" fill="#73A68D"/>
</g>
<path d="M59.2796 47.6765L58.7473 48.8805H59.8069L59.2796 47.6765ZM60.195 49.761L59.9213 49.1441H58.6328L58.3592 49.761H58.0508L59.1453 47.3184H59.4089L60.5034 49.761H60.195Z" fill="#201F1E"/>
<path d="M62.7314 49.7561H61.0449V47.3184H61.3285V49.4974H62.7314V49.7561Z" fill="#201F1E"/>
<path d="M65.9911 49.7561H65.7125V47.9303L64.7524 49.7561H64.6031L63.638 47.9303V49.7561H63.3594V47.3184H63.6131L64.6777 49.3282L65.7374 47.3184H65.9911V49.7561Z" fill="#201F1E"/>
<path d="M67.7581 47.6765L67.2258 48.8805H68.2854L67.7581 47.6765ZM68.6735 49.761L68.3998 49.1441H67.1113L66.8377 49.761H66.5293L67.6237 47.3184H67.8874L68.9819 49.761H68.6735Z" fill="#201F1E"/>
<mask id="mask3_880_6644" style="mask-type:luminance" maskUnits="userSpaceOnUse" x="-390" y="-453" width="956" height="538">
<path d="M565.617 -452.658H-389.559V84.6282H565.617V-452.658Z" fill="white"/>
</mask>
<g mask="url(#mask3_880_6644)">
<path d="M71.4881 48.9162L71.7667 48.9809C71.6175 49.4933 71.1647 49.8067 70.6026 49.8067C69.8912 49.8067 69.334 49.2495 69.334 48.5381C69.334 47.8267 69.8912 47.2695 70.6026 47.2695C71.1647 47.2695 71.6175 47.5879 71.7667 48.0755L71.4881 48.155C71.3637 47.762 71.0254 47.5382 70.6026 47.5382C70.0553 47.5382 69.6275 47.971 69.6275 48.5381C69.6275 49.1053 70.0553 49.5381 70.6026 49.5381C71.0254 49.5381 71.3588 49.3142 71.4881 48.9162Z" fill="#201F1E"/>
</g>
<path d="M74.2498 49.7561H72.4688V47.3184H74.2448V47.5771H72.7573V48.4029H74.1403V48.6616H72.7573V49.4974H74.2498V49.7561Z" fill="#201F1E"/>
<path d="M77.1 49.7561H76.8512L75.2593 47.8208V49.7561H74.9707V47.3184H75.2145L76.8114 49.2785V47.3184H77.1V49.7561Z" fill="#201F1E"/>
<path d="M79.7009 49.7561H77.9199V47.3184H79.696V47.5771H78.2085V48.4029H79.5915V48.6616H78.2085V49.4974H79.7009V49.7561Z" fill="#201F1E"/>
<mask id="mask4_880_6644" style="mask-type:luminance" maskUnits="userSpaceOnUse" x="-390" y="-453" width="956" height="538">
<path d="M565.617 -452.658H-389.559V84.6282H565.617V-452.658Z" fill="white"/>
</mask>
<g mask="url(#mask4_880_6644)">
<path d="M82.1495 47.939L81.8609 48.0037C81.8062 47.7102 81.5624 47.5211 81.2291 47.5211C80.8958 47.5211 80.6769 47.7002 80.6769 47.9639C80.6769 48.1828 80.8162 48.2823 81.0451 48.3271L81.5774 48.4465C81.9157 48.5211 82.1943 48.6902 82.1943 49.0782C82.1943 49.521 81.8311 49.8046 81.2888 49.8046C80.7714 49.8046 80.3585 49.5409 80.2988 49.0782L80.6023 49.0185C80.657 49.3618 80.9356 49.5558 81.3187 49.5558C81.7017 49.5558 81.9107 49.3718 81.9107 49.1031C81.9107 48.8743 81.7863 48.7847 81.5127 48.7201L80.9605 48.6007C80.647 48.531 80.3734 48.3669 80.3734 47.9788C80.3734 47.5609 80.7217 47.2773 81.2391 47.2773C81.7266 47.2773 82.0699 47.546 82.1544 47.949" fill="#201F1E"/>
</g>
<path d="M11.5315 27.1406V27.2251V43.7019H12.4768V26.1953H3.54688V27.1406H11.447H11.5315Z" fill="#201F1E"/>
<path d="M14.3971 24.2694V24.359V43.7013H15.3423V23.3242H3.54688V24.2694H14.3125H14.3971Z" fill="#201F1E"/>
<path d="M17.2626 21.4042V21.4938V43.7016H18.2078V20.459H3.54688V21.4042H17.178H17.2626Z" fill="#201F1E"/>
<path d="M26.1863 26.1953H20.127V27.1406H26.1863V26.1953Z" fill="#201F1E"/>
<path d="M26.1863 23.3242H20.127V24.2694H26.1863V23.3242Z" fill="#201F1E"/>
<path d="M26.1863 20.459H20.127V21.4042H26.1863V20.459Z" fill="#201F1E"/>
<path d="M31.2968 21.4938V21.4042H31.3863H54.226V20.459H30.3516V43.7016H31.2968V21.4938Z" fill="#201F1E"/>
<path d="M34.162 24.359V24.2694H34.2516H54.2257V23.3242H33.2168V43.7013H34.162V24.359Z" fill="#201F1E"/>
<path d="M37.0272 27.2242V27.1347H37.1168H54.2254V26.1895H36.082V43.701H37.0272V27.2242Z" fill="#201F1E"/>
<path d="M48.4902 29.0605H47.5449V43.7016H48.4902V29.0605Z" fill="#201F1E"/>
<path d="M51.3554 29.0605H50.4102V43.7016H51.3554V29.0605Z" fill="#201F1E"/>
<path d="M54.2265 29.0605H53.2812V43.7016H54.2265V29.0605Z" fill="#201F1E"/>
<path d="M62.1952 20.543H61.25V43.8055H62.1952V20.543Z" fill="#201F1E"/>
<path d="M59.33 20.543H58.3848V43.8055H59.33V20.543Z" fill="#201F1E"/>
<path d="M65.0605 20.543H64.1152V43.8055H65.0605V20.543Z" fill="#201F1E"/>
<mask id="mask5_880_6644" style="mask-type:luminance" maskUnits="userSpaceOnUse" x="-390" y="-453" width="956" height="538">
<path d="M565.617 -452.658H-389.559V84.6282H565.617V-452.658Z" fill="white"/>
</mask>
<g mask="url(#mask5_880_6644)">
<path d="M81.7492 23.7012H67.0684V24.6762H82.0626C81.993 24.3429 81.8885 24.0146 81.7492 23.7012Z" fill="#201F1E"/>
<path d="M67.0684 26.7754V27.7504H81.7492C81.8885 27.437 81.993 27.1087 82.0626 26.7754H67.0684Z" fill="#201F1E"/>
<path d="M67.0684 39.3574V40.4817H81.789C81.9233 40.1186 82.0228 39.7405 82.0875 39.3574H67.0733H67.0684Z" fill="#201F1E"/>
<path d="M81.7791 36.1367H67.0684V37.261H82.0825C82.0179 36.873 81.9184 36.4999 81.7791 36.1367Z" fill="#201F1E"/>
<path d="M77.6201 32.918H67.0684V34.0423H80.3911C79.5951 33.316 78.62 32.918 77.6201 32.918Z" fill="#201F1E"/>
<path d="M80.0677 29.8496H67.0684V30.8247H77.0728C78.1474 30.8247 79.1971 30.4814 80.0677 29.8496Z" fill="#201F1E"/>
<path d="M77.0728 20.6309H67.0684V21.6059H80.0677C79.1971 20.9741 78.1474 20.6309 77.0728 20.6309Z" fill="#201F1E"/>
<path d="M80.412 42.5742H67.0645V43.7185H77.6162C78.6261 43.7185 79.6111 43.3155 80.4071 42.5742" fill="#201F1E"/>
</g>
</g>
</g>
</svg>
