<?xml version="1.0" encoding="UTF-8"?>
<svg id="Capa_1" data-name="Capa 1" xmlns="http://www.w3.org/2000/svg" viewBox="0 0 50 50">
  <defs>
    <style>
      .cls-1 {
        fill: #fff;
        stroke-width: 0px;
      }
    </style>
  </defs>
  <path class="cls-1" d="m27.18,41.8c10.29,0,18.47-6.98,20.06-16.55,1.75-10.5-5.51-20.69-16-22.46C20.42.96,10.3,8.07,8.49,18.86c-.97,5.78.46,11,4.1,15.59.37.46.32.71-.07,1.1-3.14,3.11-6.26,6.25-9.39,9.38-.42.42-.76.86-.59,1.51.25.97,1.3,1.37,2.12.8.2-.14.37-.32.54-.49,3.08-3.09,6.17-6.17,9.24-9.27.39-.39.63-.46,1.1-.08,3.57,2.91,7.7,4.33,11.64,4.4ZM10.96,22.13c0-9.08,7.22-16.89,16.88-16.9,9.39,0,16.88,7.46,16.89,16.88.01,9.68-7.8,16.94-16.9,16.93-9.31,0-16.87-7.58-16.87-16.91Z"/>
</svg>