<svg xmlns="http://www.w3.org/2000/svg" version="1.1" xmlns:xlink="http://www.w3.org/1999/xlink" width="512" height="512" x="0" y="0" viewBox="0 0 64 64" style="enable-background:new 0 0 512 512" xml:space="preserve" class=""><g><path d="M32.03 63.98c-17.64 0-32-14.36-32-32 0-17.65 14.36-32 32-32s32 14.36 32 32c0 17.65-14.36 32-32 32z" opacity="0.25098039215686274" fill="#ffffff" data-original="#00000040" class=""></path><path d="M32.03 63.98c-17.64 0-32-14.36-32-32 0-17.65 14.36-32 32-32s32 14.36 32 32c0 17.65-14.36 32-32 32z" fill="#000000" opacity="1" data-original="#000000" class=""></path><path fill="#ffffff" d="M19.58 41.27h24.83v2.95H19.58zM19.58 34.11h24.83v2.95H19.58zM19.58 26.95h24.83v2.95H19.58zM19.58 19.79h24.83v2.95H19.58z" opacity="1" data-original="#ffffff" class=""></path></g></svg>