<svg width="26" height="24" viewBox="0 0 26 24" fill="none" xmlns="http://www.w3.org/2000/svg">
<path d="M22.9298 9.8531C24.1708 11.0732 24.1708 12.9268 22.9298 14.1469C20.8368 16.2047 17.2421 19 13.1588 19C9.07551 19 5.4808 16.2047 3.38777 14.1469C2.14679 12.9268 2.14679 11.0732 3.38777 9.8531C5.4808 7.79533 9.07551 5 13.1588 5C17.2421 5 20.8368 7.79533 22.9298 9.8531Z" stroke="#6C7275" stroke-width="1.5"/>
<path d="M16.3693 12C16.3693 13.6569 14.9319 15 13.1588 15C11.3857 15 9.94826 13.6569 9.94826 12C9.94826 10.3431 11.3857 9 13.1588 9C14.9319 9 16.3693 10.3431 16.3693 12Z" stroke="#6C7275" stroke-width="1.5"/>
</svg>
