<svg width="48" height="32" viewBox="0 0 48 32" fill="none" xmlns="http://www.w3.org/2000/svg">
<rect x="0.5" y="0.5" width="47" height="31" rx="3.5" fill="white" stroke="#E8ECEF"/>
<path fill-rule="evenodd" clip-rule="evenodd" d="M9.50339 11.002H6.58442C6.38467 11.002 6.21479 11.1471 6.18364 11.3442L5.00306 18.8284C4.9796 18.9762 5.09398 19.1093 5.2438 19.1093H6.63734C6.83709 19.1093 7.00697 18.9641 7.03812 18.7666L7.35654 16.748C7.38725 16.5504 7.55755 16.4054 7.75688 16.4054H8.68093C10.6038 16.4054 11.7134 15.475 12.0034 13.6314C12.1339 12.8248 12.0089 12.1911 11.631 11.7471C11.2163 11.2599 10.4803 11.002 9.50339 11.002ZM9.84015 13.7355C9.68056 14.7828 8.88026 14.7828 8.10645 14.7828H7.66597L7.97498 12.8268C7.99333 12.7087 8.09576 12.6216 8.21528 12.6216H8.41716C8.94427 12.6216 9.44156 12.6216 9.69853 12.922C9.85161 13.1013 9.89862 13.3675 9.84015 13.7355ZM18.2289 13.7019H16.8311C16.712 13.7019 16.6091 13.789 16.5907 13.9073L16.5289 14.2981L16.4311 14.1565C16.1285 13.7173 15.4538 13.5706 14.7802 13.5706C13.2355 13.5706 11.9163 14.7403 11.6593 16.3813C11.5258 17.1997 11.7156 17.9824 12.1799 18.5283C12.606 19.0301 13.2155 19.2392 13.9406 19.2392C15.1852 19.2392 15.8755 18.439 15.8755 18.439L15.8131 18.8275C15.7896 18.976 15.9039 19.1091 16.0528 19.1091H17.312C17.5123 19.1091 17.6812 18.9639 17.7128 18.7664L18.4683 13.9827C18.4922 13.8356 18.3782 13.7019 18.2289 13.7019ZM16.2804 16.4222C16.1455 17.2206 15.5117 17.7566 14.7034 17.7566C14.2975 17.7566 13.973 17.6265 13.7648 17.3798C13.5582 17.1349 13.4796 16.7862 13.5454 16.3979C13.6714 15.6061 14.3159 15.0528 15.1119 15.0528C15.5087 15.0528 15.8314 15.1845 16.044 15.4333C16.2569 15.6847 16.3414 16.0355 16.2804 16.4222ZM24.2688 13.7017H25.6735C25.8702 13.7017 25.985 13.9223 25.8732 14.0837L21.2013 20.8265C21.1257 20.9357 21.001 21.0007 20.8679 21.0007H19.465C19.2674 21.0007 19.1521 20.7783 19.2664 20.6166L20.7212 18.5634L19.174 14.0234C19.1205 13.8656 19.237 13.7017 19.4049 13.7017H20.7852C20.9645 13.7017 21.1227 13.8194 21.1745 13.991L21.9955 16.733L23.933 13.8796C24.0088 13.7683 24.1348 13.7017 24.2688 13.7017Z" fill="#253B80"/>
<path fill-rule="evenodd" clip-rule="evenodd" d="M39.4983 18.8269L40.6962 11.2058C40.7146 11.0875 40.8171 11.0004 40.9362 11H42.2848C42.4338 11 42.5481 11.1335 42.5246 11.2812L41.3433 18.7651C41.3125 18.9626 41.1426 19.1077 40.9425 19.1077H39.7381C39.5891 19.1077 39.4748 18.9746 39.4983 18.8269ZM30.3238 11.0004H27.4043C27.205 11.0004 27.0351 11.1456 27.0039 11.3427L25.8234 18.8269C25.7999 18.9746 25.9142 19.1077 26.0634 19.1077H27.5613C27.7006 19.1077 27.8197 19.0062 27.8414 18.868L28.1764 16.7465C28.2072 16.5488 28.3775 16.4038 28.5768 16.4038H29.5004C31.4236 16.4038 32.533 15.4734 32.8232 13.6298C32.9541 12.8233 32.8283 12.1895 32.4507 11.7455C32.0361 11.2583 31.3007 11.0004 30.3238 11.0004ZM30.6606 13.7339C30.5014 14.7812 29.701 14.7812 28.9268 14.7812H28.4867L28.7962 12.8252C28.8146 12.7071 28.9161 12.62 29.036 12.62H29.2379C29.7646 12.62 30.2624 12.62 30.5192 12.9204C30.6724 13.0998 30.719 13.366 30.6606 13.7339ZM39.0485 13.7003H37.6517C37.5316 13.7003 37.4297 13.7874 37.4117 13.9057L37.3499 14.2966L37.2517 14.155C36.9491 13.7157 36.2748 13.569 35.6013 13.569C34.0565 13.569 32.7377 14.7388 32.4807 16.3797C32.3476 17.1982 32.5366 17.9808 33.001 18.5267C33.4278 19.0285 34.0365 19.2377 34.7616 19.2377C36.0062 19.2377 36.6963 18.4374 36.6963 18.4374L36.6341 18.8259C36.6106 18.9744 36.7249 19.1075 36.8748 19.1075H38.1334C38.3327 19.1075 38.5026 18.9624 38.5338 18.7649L39.2897 13.9812C39.3128 13.834 39.1984 13.7003 39.0485 13.7003ZM37.1002 16.4206C36.9661 17.2191 36.3315 17.7551 35.523 17.7551C35.1179 17.7551 34.7928 17.6249 34.5844 17.3783C34.3778 17.1334 34.3002 16.7846 34.3652 16.3963C34.4918 15.6046 35.1355 15.0512 35.9315 15.0512C36.3285 15.0512 36.6511 15.1829 36.8638 15.4318C37.0775 15.6832 37.162 16.0339 37.1002 16.4206Z" fill="#179BD7"/>
</svg>
