<svg width="16" height="20" viewBox="0 0 16 20" fill="none" xmlns="http://www.w3.org/2000/svg">
<path d="M8.46875 0.423828C12.1406 0.423828 15.5 2.96289 15.5 6.83008C15.5 10.4629 13.625 14.5254 9.48438 14.5254C8.46875 14.5254 7.25781 14.0176 6.75 13.1191C5.89062 16.6348 5.92969 17.1816 3.97656 19.877C3.78125 19.9551 3.82031 19.9551 3.70312 19.7988C3.625 19.0566 3.54688 18.3535 3.54688 17.6113C3.54688 15.2285 4.64062 11.752 5.1875 9.44727C4.875 8.82227 4.79688 8.11914 4.79688 7.45508C4.79688 4.33008 8.46875 3.86133 8.46875 6.43945C8.46875 7.96289 7.41406 9.4082 7.41406 10.8926C7.41406 11.8691 8.27344 12.5723 9.25 12.5723C11.9453 12.5723 12.7656 8.70508 12.7656 6.63477C12.7656 3.86133 10.8125 2.33789 8.11719 2.33789C5.03125 2.33789 2.64844 4.56445 2.64844 7.68945C2.64844 9.21289 3.58594 9.99414 3.58594 10.3457C3.58594 10.6582 3.35156 11.7129 2.96094 11.7129C2.02344 11.7129 0.5 10.1504 0.5 7.41602C0.5 3.08008 4.44531 0.423828 8.46875 0.423828Z" fill="#DF0022"/>
</svg>
