<svg width="24" height="24" viewBox="0 0 24 24" fill="none" xmlns="http://www.w3.org/2000/svg">
<g clip-path="url(#clip0_44_537)">
<path d="M23.8125 21.9844C24.0938 22.2344 24.0938 22.5 23.8125 22.7812L22.7812 23.8125C22.5 24.0938 22.2344 24.0938 21.9844 23.8125L16.3125 18.1406C16.1875 18.0156 16.125 17.8906 16.125 17.7656V17.1094C14.2812 18.7031 12.1562 19.5 9.75 19.5C7.0625 19.5 4.76562 18.5469 2.85938 16.6406C0.953125 14.7344 0 12.4375 0 9.75C0 7.0625 0.953125 4.76562 2.85938 2.85938C4.76562 0.953125 7.0625 0 9.75 0C12.4375 0 14.7344 0.953125 16.6406 2.85938C18.5469 4.76562 19.5 7.0625 19.5 9.75C19.5 12.1562 18.7031 14.2812 17.1094 16.125H17.7656C17.9219 16.125 18.0469 16.1875 18.1406 16.3125L23.8125 21.9844ZM4.45312 15.0469C4.45312 15.0469 4.82031 15.4141 5.55469 16.1484C6.28906 16.8828 7.6875 17.25 9.75 17.25C11.8125 17.25 13.5781 16.5156 15.0469 15.0469C16.5156 13.5781 17.25 11.8125 17.25 9.75C17.25 7.6875 16.5156 5.92188 15.0469 4.45312C13.5781 2.98438 11.8125 2.25 9.75 2.25C7.6875 2.25 5.92188 2.98438 4.45312 4.45312C2.98438 5.92188 2.25 7.6875 2.25 9.75C2.25 11.8125 2.98438 13.5781 4.45312 15.0469Z" fill="#333333"/>
</g>
<defs>
<clipPath id="clip0_44_537">
<rect width="24" height="24" fill="white" transform="matrix(1 0 0 -1 0 24)"/>
</clipPath>
</defs>
</svg>
