<?xml version="1.0" encoding="UTF-8"?>
<svg id="Capa_1" data-name="Capa 1" xmlns="http://www.w3.org/2000/svg" viewBox="0 0 50 50">
  <defs>
    <style>
      .cls-1 {
        fill: #fff;
        stroke-width: 0px;
      }
    </style>
  </defs>
  <path class="cls-1" d="m24.65,47.5c-3.07-3-5.91-6.21-8.48-9.65-2.61-3.49-4.94-7.15-6.54-11.23-.92-2.34-1.55-4.75-1.52-7.3.05-4.65,1.71-8.62,4.99-11.9,2.81-2.81,6.22-4.42,10.18-4.84,8.78-.92,16.81,5.14,18.37,13.81.59,3.28.13,6.43-1,9.52-1.45,3.96-3.62,7.53-6.08,10.93-2.76,3.82-5.84,7.35-9.21,10.64h-.7Zm15.78-28.08c-.02-.29-.05-.58-.07-.87-.08-2.14-.58-4.19-1.6-6.06-3.13-5.74-7.97-8.61-14.54-8.45-2.14.05-4.16.61-6.07,1.56-6.39,3.18-9.86,10.36-8.09,17.45.79,3.15,2.2,6.04,3.88,8.8,3.01,4.95,6.7,9.37,10.69,13.54.3.32.47.28.75-.01,2.17-2.28,4.26-4.62,6.2-7.11,2.77-3.55,5.29-7.26,7.07-11.42,1.01-2.37,1.72-4.82,1.78-7.42Z"/>
  <path class="cls-1" d="m25.01,11.64c4.28,0,7.75,3.44,7.75,7.71,0,4.35-3.42,7.8-7.75,7.8-4.34,0-7.77-3.44-7.77-7.78,0-4.3,3.44-7.73,7.77-7.74Zm-.03,1.47c-3.49.11-6.22,2.7-6.25,6.24-.03,3.5,2.63,6.31,6.29,6.31,3.48,0,6.22-2.66,6.24-6.22.02-3.62-2.75-6.24-6.29-6.33Z"/>
</svg>