<?xml version="1.0" encoding="UTF-8"?>
<svg id="Capa_1" data-name="Capa 1" xmlns="http://www.w3.org/2000/svg" viewBox="0 0 50 50">
  <defs>
    <style>
      .cls-1 {
        fill: #fff;
        stroke-width: 0px;
      }
    </style>
  </defs>
  <path class="cls-1" d="m26.22,2.5h7.6c.74,6.49,4.49,9.91,10.83,10.81v7.46c-3.85.17-7.25-1.1-10.59-3.24-.05.54-.11.92-.11,1.31,0,4.75.01,9.49,0,14.24-.04,8.01-5.77,13.85-14.09,14.4-6.64.44-13.3-5.35-14.35-12.47-1.25-8.51,5.94-16.45,14.51-16.03.47.02.93.12,1.46.19v7.56c-.41,0-.81.02-1.21,0-3.87-.21-6.97,2.48-7.11,6.17-.13,3.53,2.64,6.58,6.1,6.71,3.91.15,6.93-2.59,6.95-6.5.05-9.49.02-18.98.02-28.47,0-.68,0-1.36,0-2.13Z"/>
</svg>