<svg width="21" height="25" viewBox="0 0 21 25" fill="none" xmlns="http://www.w3.org/2000/svg">
<path d="M18.4297 7.08789C18.4297 7.2832 18.4297 7.43945 18.4297 7.63477C18.4297 13.0645 14.3281 19.2754 6.78906 19.2754C4.44531 19.2754 2.29688 18.6113 0.5 17.4395C0.8125 17.4785 1.125 17.5176 1.47656 17.5176C3.39062 17.5176 5.14844 16.8535 6.55469 15.7598C4.75781 15.7207 3.23438 14.5488 2.72656 12.9082C3 12.9473 3.23438 12.9863 3.50781 12.9863C3.85938 12.9863 4.25 12.9082 4.5625 12.8301C2.6875 12.4395 1.28125 10.7988 1.28125 8.80664V8.76758C1.82812 9.08008 2.49219 9.23633 3.15625 9.27539C2.02344 8.5332 1.32031 7.2832 1.32031 5.87695C1.32031 5.0957 1.51562 4.39258 1.86719 3.80664C3.89844 6.26758 6.94531 7.9082 10.3438 8.10352C10.2656 7.79102 10.2266 7.47852 10.2266 7.16602C10.2266 4.90039 12.0625 3.06445 14.3281 3.06445C15.5 3.06445 16.5547 3.5332 17.3359 4.35352C18.2344 4.1582 19.1328 3.80664 19.9141 3.33789C19.6016 4.31445 18.9766 5.0957 18.1172 5.60352C18.9375 5.52539 19.7578 5.29102 20.4609 4.97852C19.9141 5.79883 19.2109 6.50195 18.4297 7.08789Z" fill="#26D0FE"/>
</svg>
