<svg width="12" height="12" viewBox="0 0 12 12" fill="none" xmlns="http://www.w3.org/2000/svg">
<path d="M3.60019 3.06109V3.56109C3.77803 3.56109 3.94248 3.46664 4.03208 3.31303L3.60019 3.06109ZM4.44019 1.62109V1.12109C4.26236 1.12109 4.09791 1.21555 4.00831 1.36916L4.44019 1.62109ZM7.56019 1.62109L7.99208 1.36916C7.90248 1.21555 7.73803 1.12109 7.56019 1.12109V1.62109ZM8.40019 3.06109L7.9683 3.31303C8.05791 3.46664 8.22236 3.56109 8.40019 3.56109V3.06109ZM1.7002 9.18109V4.26109H0.700195V9.18109H1.7002ZM2.4002 3.56109H3.60019V2.56109H2.4002V3.56109ZM4.03208 3.31303L4.87208 1.87303L4.00831 1.36916L3.16831 2.80916L4.03208 3.31303ZM4.44019 2.12109H7.56019V1.12109H4.44019V2.12109ZM7.12831 1.87303L7.9683 3.31303L8.83208 2.80916L7.99208 1.36916L7.12831 1.87303ZM8.40019 3.56109H9.60019V2.56109H8.40019V3.56109ZM10.3002 4.26109V9.18109H11.3002V4.26109H10.3002ZM10.3002 9.18109C10.3002 9.56769 9.98679 9.88109 9.60019 9.88109V10.8811C10.5391 10.8811 11.3002 10.12 11.3002 9.18109H10.3002ZM9.60019 3.56109C9.98679 3.56109 10.3002 3.87449 10.3002 4.26109H11.3002C11.3002 3.32221 10.5391 2.56109 9.60019 2.56109V3.56109ZM1.7002 4.26109C1.7002 3.87449 2.0136 3.56109 2.4002 3.56109V2.56109C1.46131 2.56109 0.700195 3.32221 0.700195 4.26109H1.7002ZM2.4002 9.88109C2.0136 9.88109 1.7002 9.56769 1.7002 9.18109H0.700195C0.700195 10.12 1.46131 10.8811 2.4002 10.8811V9.88109ZM7.30019 6.42109C7.30019 7.13906 6.71816 7.72109 6.00019 7.72109V8.72109C7.27045 8.72109 8.30019 7.69135 8.30019 6.42109H7.30019ZM6.00019 7.72109C5.28222 7.72109 4.70019 7.13906 4.70019 6.42109H3.70019C3.70019 7.69135 4.72994 8.72109 6.00019 8.72109V7.72109ZM4.70019 6.42109C4.70019 5.70312 5.28222 5.12109 6.00019 5.12109V4.12109C4.72994 4.12109 3.70019 5.15084 3.70019 6.42109H4.70019ZM6.00019 5.12109C6.71816 5.12109 7.30019 5.70312 7.30019 6.42109H8.30019C8.30019 5.15084 7.27045 4.12109 6.00019 4.12109V5.12109ZM9.60019 9.88109H2.4002V10.8811H9.60019V9.88109Z" fill="white"/>
</svg>
