<?xml version="1.0" encoding="UTF-8"?>
<svg id="Capa_1" data-name="Capa 1" xmlns="http://www.w3.org/2000/svg" viewBox="0 0 50 50">
  <defs>
    <style>
      .cls-1 {
        fill: #fff;
        stroke-width: 0px;
      }
    </style>
  </defs>
  <path class="cls-1" d="m46.62,46.02c-.03-2.42-.46-4.73-1.27-6.87-2.33-6.15-6.63-10.5-12.78-12.93-.57-.14-.75-.49-.8-.76-.05-.25-.04-.7.54-1.03,3.86-3.09,5.44-7.04,4.68-11.7-.74-4.54-3.38-7.74-7.86-9.52-.79-.31-1.63-.47-2.52-.64l-.38-.07-2.86.07c-.91.17-1.78.33-2.59.66-4.45,1.79-7.08,4.99-7.82,9.5-.76,4.68.83,8.63,4.72,11.74l.24.19c.1.09.2.25.24.38.1.21.08.39-.02.6-.19.42-.58.53-.71.57-6.14,2.4-10.44,6.72-12.8,12.85-.64,1.67-1.05,3.49-1.22,5.39,0,.1-.03.2-.05.31v1.76c0,.54.46.99,1.01.99s1.01-.45,1.01-1.01v-.68c.03-1.31.21-2.67.56-4.02,1.16-4.6,3.7-8.34,7.54-11.13,3.44-2.5,7.23-3.75,11.32-3.75,1.34,0,2.72.13,4.12.41,3.45.67,6.56,2.26,9.25,4.73,3.01,2.76,4.99,6.14,5.9,10.03.31,1.33.47,2.65.49,3.93l.02.22c.01.12.02.23.02.28,0,.56.45,1.01,1.01,1.01s1.01-.45,1.01-1.01v-.47s0,0,0,0Zm-21.64-21.18h-.02c-5.59-.01-10.06-4.47-10.17-10.14.09-5.69,4.55-10.15,10.15-10.18.02,0,.04,0,.06,0,2.71,0,5.25,1.04,7.15,2.92,1.91,1.9,2.97,4.46,2.98,7.23,0,2.75-1.04,5.31-2.95,7.22-1.9,1.9-4.46,2.95-7.2,2.95Z"/>
  <polygon class="cls-1" points="17.28 25.13 17.28 25.13 17.28 25.13 17.28 25.13"/>
</svg>