<svg width="30" height="18" viewBox="0 0 30 18" fill="none" xmlns="http://www.w3.org/2000/svg">
<path fill-rule="evenodd" clip-rule="evenodd" d="M13.7836 12.7865C14.9899 11.9965 15.7689 10.7767 16.1191 9.1233L19.9709 13.9831H27.3536C26.5662 14.9774 25.5638 15.7805 24.4216 16.3321C23.2502 16.9244 21.9547 17.2296 20.6421 17.2225H6.74989C5.43735 17.2276 4.14221 16.9221 2.97035 16.3309C1.82512 15.7764 0.821815 14.9675 0.0371094 13.9659H8.71927C10.8993 13.9671 12.587 13.574 13.7836 12.7865ZM10.0334 7.12453C10.3445 7.40622 10.4266 7.82018 10.2808 8.36519C10.0971 8.99838 9.86195 9.44051 9.58148 9.69281C9.24101 9.99409 8.72539 10.146 8.03342 10.146H3.05854L4.2845 6.75956H8.77928C9.33409 6.75956 9.75172 6.88081 10.0334 7.12453ZM24.3028 0.893071C25.4045 1.41264 26.3809 2.16424 27.165 3.09637H19.9403L16.2918 6.87591C16.1657 5.50421 15.5092 4.50605 14.3237 3.88388C13.3022 3.35847 11.8521 3.09515 9.97462 3.09515H0.226943C1.03065 2.1495 2.03022 1.38976 3.1565 0.868492C4.28277 0.347227 5.50884 0.0768855 6.74989 0.0761719H20.6421C21.9256 0.0761719 23.1467 0.348063 24.3028 0.893071ZM23.0793 8.01369L27.5422 3.563C28.0774 4.28148 28.4965 5.07952 28.7841 5.92796C29.0768 6.80365 29.2214 7.71363 29.2214 8.65668C29.2214 9.54216 29.0903 10.4032 28.8294 11.2384C28.569 12.0485 28.1897 12.8154 27.7039 13.514L23.0793 8.01369Z" fill="#E31F28"/>
</svg>
