<svg width="48" height="32" viewBox="0 0 48 32" fill="none" xmlns="http://www.w3.org/2000/svg">
<rect x="0.5" y="0.5" width="47" height="31" rx="3.5" fill="white" stroke="#E8ECEF"/>
<path d="M20.8458 21.9865H17.5098L19.5963 9.23047H22.9321L20.8458 21.9865Z" fill="#00579F"/>
<path d="M32.9368 9.54307C32.2788 9.28497 31.2351 9 29.9446 9C26.6502 9 24.3303 10.7369 24.3161 13.2201C24.2887 15.0523 25.9771 16.0699 27.2398 16.6808C28.5305 17.305 28.9692 17.7124 28.9692 18.2689C28.9561 19.1234 27.9263 19.5173 26.9658 19.5173C25.6339 19.5173 24.9203 19.3142 23.8358 18.8388L23.3965 18.635L22.9297 21.4984C23.7121 21.8509 25.1536 22.1636 26.6502 22.1773C30.1506 22.1773 32.4294 20.4673 32.4564 17.821C32.4698 16.3689 31.5782 15.2563 29.6562 14.347C28.4894 13.7634 27.7749 13.3698 27.7749 12.7727C27.7886 12.2298 28.3793 11.6737 29.6964 11.6737C30.7809 11.6465 31.5777 11.9042 32.1813 12.1621L32.4831 12.2976L32.9368 9.54307Z" fill="#00579F"/>
<path d="M37.3723 17.4675C37.647 16.7347 38.7042 13.8984 38.7042 13.8984C38.6903 13.9257 38.9783 13.1521 39.1431 12.6772L39.3762 13.7763C39.3762 13.7763 40.0079 16.8297 40.1451 17.4675C39.6238 17.4675 38.0312 17.4675 37.3723 17.4675ZM41.4901 9.23047H38.9097C38.114 9.23047 37.5095 9.46097 37.1661 10.2888L32.2109 21.9863H35.7113C35.7113 21.9863 36.2876 20.4119 36.4114 20.0728C36.7954 20.0728 40.2006 20.0728 40.6946 20.0728C40.7904 20.5207 41.0926 21.9863 41.0926 21.9863H44.1814L41.4901 9.23047Z" fill="#00579F"/>
<path d="M14.7226 9.23047L11.4556 17.9288L11.0986 16.1647C10.4946 14.1291 8.60026 11.9175 6.48633 10.8178L9.47882 21.9729H13.0065L18.2501 9.23047H14.7226Z" fill="#00579F"/>
<path d="M8.4222 9.23047H3.05491L3 9.48824C7.18682 10.5469 9.95967 13.0988 11.0989 16.1661L9.93213 10.3029C9.74003 9.48806 9.14971 9.25735 8.4222 9.23047Z" fill="#FAA61A"/>
</svg>
