<?xml version="1.0" encoding="UTF-8"?>
<svg id="Capa_1" data-name="Capa 1" xmlns="http://www.w3.org/2000/svg" viewBox="0 0 50 50">
  <defs>
    <style>
      .cls-1 {
        fill: #fff;
        fill-rule: evenodd;
        stroke-width: 0px;
      }
    </style>
  </defs>
  <path class="cls-1" d="m40.94,9.04c-4.23-4.21-9.86-6.54-15.85-6.54C12.74,2.5,2.69,12.5,2.69,24.8c0,3.93,1.03,7.77,2.99,11.15l-3.18,11.56,11.88-3.1c3.27,1.78,6.96,2.71,10.71,2.71h0c12.35,0,22.4-10,22.41-22.3,0-5.96-2.33-11.56-6.56-15.78m-15.85,34.31h0c-3.34,0-6.62-.89-9.48-2.58l-.68-.4-7.05,1.84,1.88-6.84-.44-.7c-1.86-2.95-2.85-6.36-2.85-9.86,0-10.22,8.36-18.53,18.63-18.53,4.97,0,9.65,1.93,13.17,5.43,3.52,3.5,5.45,8.16,5.45,13.11,0,10.22-8.36,18.53-18.62,18.53m10.21-13.88c.56.28.93.42,1.07.65.14.23.14,1.35-.33,2.65-.47,1.3-2.7,2.49-3.78,2.65-.96.14-2.19.2-3.53-.22-.81-.26-1.86-.6-3.19-1.18-5.62-2.41-9.28-8.04-9.56-8.41-.28-.37-2.29-3.02-2.29-5.76s1.45-4.09,1.96-4.65c.51-.56,1.12-.7,1.49-.7s.75,0,1.07.02c.34.02.8-.13,1.26.96.47,1.12,1.59,3.86,1.73,4.14.14.28.23.61.05.98-.19.37-.28.6-.56.93-.28.33-.59.73-.84.98-.28.28-.57.58-.24,1.14.33.56,1.45,2.38,3.11,3.86,2.14,1.9,3.94,2.49,4.5,2.76.56.28.89.23,1.21-.14.33-.37,1.4-1.63,1.77-2.18.37-.56.75-.47,1.26-.28.51.19,3.26,1.53,3.82,1.81"/>
</svg>