<svg width="195" height="36" viewBox="0 0 195 36" fill="none" xmlns="http://www.w3.org/2000/svg">
<g clip-path="url(#clip0_76_129)">
<path d="M67.9539 7.21485L68.7657 17.7709H68.8395L71.8095 12.1037L74.9159 6.92188H78.7358L78.5904 7.45638L68.22 24.0977H66.0552L65.1651 14.9015H65.0935L59.3168 24.0977H57.0803L55.7004 7.45638L55.8458 6.92188H59.6657L59.981 12.1283L59.9855 17.7709H60.0593L66.4689 7.21485H67.9539Z" fill="#111111"/>
<path d="M85.1616 24.2429C80.6127 24.2429 77.3318 21.1768 78.8884 15.4358C80.4427 9.69488 85.4747 6.65332 89.999 6.65332C94.5233 6.65332 97.8288 9.71724 96.2789 15.4358C94.8744 20.6177 90.3166 24.2429 85.1616 24.2429ZM86.1121 20.9106C88.7623 20.9106 91.645 19.1595 92.6537 15.4381C93.6355 11.8128 91.739 10.0125 89.0888 10.0125C86.4386 10.0125 83.5357 11.8374 82.5606 15.4381C81.552 19.1595 83.3881 20.9106 86.1121 20.9106Z" fill="#111111"/>
<path d="M102.957 20.6916H110.06L109.176 23.9501H98.4236L103.037 6.92188H106.687L102.957 20.6916Z" fill="#111111"/>
<path d="M124.366 17.8939H118.261L116.619 23.9501H112.994L117.608 6.92188H128.043L127.18 10.1088H120.37L119.124 14.7069H125.229L124.366 17.8939Z" fill="#111111"/>
<path d="M140.131 6.75195C143.562 6.75195 146.708 8.60149 146.346 12.8105H142.819C142.587 10.8894 141.285 10.0373 139.241 10.0373C136.224 10.0373 133.612 12.2268 132.735 15.4629C131.943 18.3814 133.256 20.8147 136.295 20.8147C138.411 20.8147 140.408 19.8172 141.553 17.7485H145.056C143.108 22.2483 138.975 24.1224 135.423 24.1224C130.948 24.1224 127.533 21.1054 129.061 15.4629C130.597 9.79575 135.671 6.68039 140.129 6.75419" fill="#111111"/>
<path d="M151.172 21.1299L149.094 23.9522H145.299L145.431 23.4647L157.785 6.77637H159.465L162.728 23.4647L162.596 23.9522H158.825L158.253 21.1299H151.174H151.172ZM153.194 18.0637H157.913L157.076 12.4435L153.194 18.0637Z" fill="#111111"/>
<path d="M180.157 23.4155L180.018 23.9254H176.127L174.147 18.3053H171.106L169.583 23.9254H165.935L170.549 6.89716C172.982 6.89716 175.395 6.87256 177.822 6.89716C181.713 6.89716 183.066 9.71955 182.248 12.7365C181.662 14.9014 180.051 16.8001 177.849 17.7484L180.157 23.4178V23.4155ZM175.516 15.3151C177.048 15.3151 178.37 14.1231 178.739 12.6627C179.128 11.2269 178.488 10.0841 176.932 10.0841H173.284L171.866 15.3151H175.514H175.516Z" fill="#111111"/>
<path d="M76.5262 28.3983L76.2623 29.3756H75.4102C75.294 29.3756 75.2067 29.3935 75.1508 29.4271C75.0927 29.4606 75.0524 29.5188 75.0323 29.6015C75.0077 29.6932 75.0166 29.7536 75.0569 29.7827C75.0971 29.8117 75.1955 29.8274 75.3476 29.8274H76.2243L75.8844 31.0798H74.8578C74.3748 31.0798 74.0393 30.9657 73.847 30.7331C73.6546 30.5028 73.6166 30.1696 73.7352 29.7357L74.2003 28.0159C74.3144 27.5954 74.5224 27.2711 74.8265 27.0385C75.1307 26.806 75.5019 26.6919 75.938 26.6919H77.0719L76.7297 27.951H75.8978C75.6719 27.951 75.54 28.0248 75.5019 28.1702C75.4796 28.2552 75.4885 28.3156 75.5332 28.3491C75.578 28.3826 75.6697 28.3983 75.8061 28.3983H76.5262Z" fill="#111111"/>
<path d="M79.3064 31.0797L80.078 28.2327C80.2144 27.734 80.4716 27.3337 80.8518 27.034C81.232 26.7343 81.6703 26.5845 82.169 26.5845C82.6678 26.5845 83.0032 26.7298 83.1866 27.0206C83.37 27.3113 83.3879 27.7318 83.2403 28.2775L82.4799 31.0797H81.1738L81.9342 28.2775C82.008 28.0091 81.9476 27.8749 81.7575 27.8749C81.5674 27.8749 81.4444 28.0091 81.3729 28.2775L80.6147 31.0797H79.3086H79.3064Z" fill="#111111"/>
<path d="M88.4801 26.6919L87.6795 29.6485C87.5587 30.0935 87.3329 30.4625 87.0019 30.7533C86.6709 31.044 86.3108 31.1894 85.9217 31.1894C85.8076 31.1894 85.6824 31.1648 85.5437 31.1156L85.8859 29.852C85.9418 29.8788 85.9977 29.8945 86.0514 29.8945C86.2236 29.8945 86.3466 29.7558 86.4204 29.4807L87.1763 26.6941H88.4824L88.4801 26.6919Z" fill="#111111"/>
<path d="M94.105 26.5823C94.7267 26.5823 95.1986 26.8082 95.5206 27.26C95.8427 27.7117 95.9187 28.2529 95.7487 28.8836C95.5743 29.5232 95.203 30.0689 94.635 30.5162C94.0647 30.9635 93.4609 31.1871 92.8212 31.1871C92.1816 31.1871 91.703 30.9613 91.3743 30.5117C91.0455 30.0622 90.9672 29.5188 91.1417 28.8814C91.3161 28.2373 91.6896 27.6938 92.2644 27.2488C92.8391 26.8037 93.4541 26.5801 94.1094 26.5801M93.7203 27.8727C93.4519 27.8727 93.197 27.9711 92.9554 28.168C92.7139 28.3648 92.5551 28.6041 92.4791 28.8814C92.403 29.1609 92.4343 29.398 92.5708 29.5948C92.7072 29.7916 92.9085 29.89 93.1746 29.89C93.4407 29.89 93.7002 29.7916 93.9395 29.597C94.181 29.4002 94.3375 29.1632 94.4136 28.8814C94.4896 28.6018 94.4605 28.3625 94.3264 28.1657C94.1922 27.9689 93.9909 27.8705 93.7203 27.8705" fill="#111111"/>
<path d="M102.811 26.6919L101.042 28.6421L100.382 31.0798H99.0763L99.7382 28.6421L99.0159 26.6919H100.34L100.662 27.5954L101.514 26.6919H102.811Z" fill="#111111"/>
<path d="M111.775 27.951L110.927 31.0798H109.621L110.469 27.951H109.469L109.811 26.6919H113.112L112.77 27.951H111.775Z" fill="#111111"/>
<path d="M117.603 28.2594L117.29 29.4157H116.928L116.478 31.0774H115.174L116.364 26.6895H117.668L117.243 28.2572H117.605L117.603 28.2594ZM119.556 26.6917L118.366 31.0796H117.062L118.249 26.6917H119.556Z" fill="#111111"/>
<path d="M125.075 28.3983L124.811 29.3756H123.959C123.843 29.3756 123.756 29.3935 123.7 29.4271C123.642 29.4606 123.601 29.5188 123.581 29.6015C123.557 29.6932 123.566 29.7536 123.606 29.7827C123.648 29.8117 123.745 29.8274 123.897 29.8274H124.773L124.433 31.0798H123.407C122.924 31.0798 122.588 30.9657 122.396 30.7331C122.204 30.5028 122.166 30.1696 122.284 29.7357L122.749 28.0159C122.863 27.5954 123.071 27.2711 123.376 27.0385C123.68 26.806 124.051 26.6919 124.487 26.6919H125.621L125.279 27.951H124.447C124.221 27.951 124.089 28.0248 124.051 28.1702C124.029 28.2552 124.038 28.3156 124.082 28.3491C124.127 28.3826 124.219 28.3983 124.355 28.3983H125.075Z" fill="#111111"/>
<path d="M134.531 27.8703L133.661 31.0774H132.357L133.546 26.6895H135.222C135.731 26.6895 136.094 26.8169 136.304 27.0696C136.541 27.3514 136.599 27.7115 136.481 28.1454C136.36 28.5882 136.065 28.9639 135.595 29.2681L135.857 31.0774H134.488L134.238 29.6639L134.544 28.5345H134.647C134.922 28.5345 135.09 28.416 135.154 28.1812C135.21 27.9732 135.081 27.8681 134.763 27.8681H134.533L134.531 27.8703Z" fill="#111111"/>
<path d="M141.553 26.6919L140.363 31.0798H139.06L140.247 26.6919H141.553Z" fill="#111111"/>
<path d="M146.158 27.951L145.31 31.0798H144.007L145.194 26.6919H146.894C147.639 26.6919 148.178 26.8619 148.509 27.1996C148.9 27.6044 149.003 28.1545 148.815 28.8478C148.636 29.512 148.274 30.0533 147.73 30.4737C147.187 30.8942 146.579 31.1044 145.905 31.1044C145.827 31.1044 145.697 31.0999 145.521 31.091L145.87 29.8028H146.078C146.838 29.8028 147.305 29.4852 147.478 28.8478C147.639 28.2507 147.346 27.951 146.599 27.951H146.158Z" fill="#111111"/>
<path d="M154.656 28.3983L154.392 29.3756H153.54C153.424 29.3756 153.337 29.3935 153.281 29.4271C153.223 29.4606 153.183 29.5188 153.162 29.6015C153.138 29.6932 153.147 29.7536 153.187 29.7827C153.23 29.8117 153.326 29.8274 153.478 29.8274H154.354L154.014 31.0798H152.988C152.505 31.0798 152.169 30.9657 151.977 30.7331C151.785 30.5028 151.747 30.1696 151.865 29.7357L152.33 28.0159C152.445 27.5954 152.653 27.2711 152.957 27.0385C153.261 26.806 153.632 26.6919 154.068 26.6919H155.202L154.86 27.951H154.028C153.802 27.951 153.67 28.0248 153.632 28.1702C153.61 28.2552 153.619 28.3156 153.663 28.3491C153.708 28.3826 153.8 28.3983 153.936 28.3983H154.656Z" fill="#111111"/>
<path d="M48.2892 0L38.5384 36H0L9.75312 0H48.2892Z" fill="#FD1F4A"/>
<path d="M50.4204 0L40.6672 36H184.719L194.472 0H50.4204ZM183.106 33.7882H43.5903L52.1447 2.21184H191.661L183.106 33.7882Z" fill="#111111"/>
<path d="M12.3759 30.894C12.5995 29.4425 12.7315 28.0962 13.0312 26.7879C13.3264 25.4997 13.7938 24.2495 14.221 22.8651C13.4829 23.0217 12.803 23.1671 11.9845 23.3393C12.0852 22.8875 12.1344 22.5789 12.2216 22.2814C12.7516 20.4364 13.5209 18.6919 14.5363 17.066C14.8024 16.6389 14.7689 16.3638 14.467 15.9858C13.0043 14.1631 11.8906 12.1392 11.0989 9.93851C11.0117 9.69473 10.9557 9.43754 10.8618 9.10208C11.1034 9.14233 11.2577 9.15351 11.4053 9.19601C13.9481 9.90049 16.359 10.9091 18.591 12.3248C18.9577 12.5574 19.2708 12.5976 19.6823 12.4344C21.9546 11.5376 24.238 10.6698 26.5191 9.79314C26.6824 9.73052 26.8546 9.6925 27.1185 9.61646C27.1588 10.1845 27.1968 10.7011 27.2415 11.3229C27.9549 11.0277 28.5923 10.7727 29.2252 10.5021C31.3543 9.58962 33.4834 8.66821 35.6125 7.7535C36.1001 7.54328 36.2902 7.63721 36.4355 8.13817C36.4512 8.18961 36.4758 8.24552 36.4668 8.29472C36.2454 9.34809 36.7061 10.3299 36.7866 11.3497C36.8985 12.7363 36.5898 14.0513 35.787 15.1561C34.6978 16.6501 33.5259 18.0926 32.2981 19.4769C30.6521 21.3332 30.0214 23.4242 30.4955 25.8597C30.5939 26.3674 30.623 26.8863 30.7169 27.3939C30.7796 27.7406 30.67 27.8681 30.3189 27.9128C29.0776 28.0626 27.8565 27.9665 26.669 27.5863C26.2441 27.4498 26.0853 27.5706 25.8437 27.9396C25.1594 28.9773 24.3811 29.9502 23.6453 30.9543C23.4507 31.2205 23.2584 31.1758 23.0079 31.0304C21.8718 30.3796 20.8028 29.6348 19.944 28.6374C19.5974 28.2348 19.3223 28.2125 18.8638 28.4652C17.0433 29.4649 15.0999 30.1738 13.1027 30.7374C12.9193 30.7889 12.7292 30.8179 12.3804 30.8917M28.3866 23.1134C28.4604 22.8786 28.5163 22.7846 28.5185 22.6862C28.5431 21.3287 29.0038 20.1188 29.8649 19.099C31.1396 17.5894 32.448 16.1021 33.801 14.6619C34.7917 13.6063 35.2748 12.459 34.9147 11.0142C34.7582 10.3858 34.7291 10.3634 34.1476 10.6855C31.8262 11.9737 29.5048 13.2619 27.1811 14.5478C26.1904 15.0957 25.1974 15.637 24.1217 16.2274C24.3006 15.1763 24.4616 14.2325 24.6361 13.2194C22.6546 14.0312 19.0807 19.7699 19.3379 21.6485C20.7066 20.5594 22.053 19.4836 23.775 18.8485C23.6431 19.5709 23.491 20.159 23.4351 20.7584C23.3792 21.3533 23.236 21.9706 23.5335 22.6907C24.645 21.3108 25.7274 20.0562 27.2013 19.0073C27.1163 20.5549 27.5367 21.8274 28.3888 23.1156M15.8938 14.9705C16.4194 14.4628 16.8197 14.0759 17.3207 13.5906C16.2382 13.0494 15.2609 12.5619 14.2858 12.0721L14.1091 12.2845C14.6884 13.1545 15.2676 14.0267 15.896 14.9683" fill="white"/>
<path d="M16.8712 7.12744C18.3965 8.01531 19.7518 9.10893 20.946 10.5604C20.3332 10.8086 19.8099 11.0233 19.2866 11.2335C19.2396 11.2514 19.1658 11.2671 19.13 11.2447C18.5776 10.8958 17.7926 10.6633 17.5287 10.1601C17.068 9.27443 16.9294 8.2233 16.6543 7.2415C16.7259 7.20348 16.7974 7.1677 16.869 7.12968" fill="white"/>
</g>
<defs>
<clipPath id="clip0_76_129">
<rect width="194.472" height="36" fill="white"/>
</clipPath>
</defs>
</svg>
